<?xml version="1.0" standalone="no"?>
<!DOCTYPE svg PUBLIC "-//W3C//DTD SVG 1.1//EN" "http://www.w3.org/Graphics/SVG/1.1/DTD/svg11.dtd" >
<svg xmlns="http://www.w3.org/2000/svg" xmlns:xlink="http://www.w3.org/1999/xlink" version="1.1">
<metadata>
Created by FontForge 20170731 at Thu Aug 16 15:00:26 2012
 By Aleksey,,,
Copyright (c) 2011 by Benot Sjholm. All rights reserved. information for commercial use: bsjoholm@free.fr
</metadata>
<defs>
<font id="Fontastique-Fontastique" horiz-adv-x="694" >
  <font-face 
    font-family="Fontastique"
    font-weight="400"
    font-stretch="normal"
    units-per-em="1000"
    panose-1="0 0 0 0 0 0 0 0 0 0"
    ascent="750"
    descent="-250"
    x-height="455"
    cap-height="695"
    bbox="-125 -265 1313 938"
    underline-thickness="50"
    underline-position="-150"
    unicode-range="U+0020-20AC"
  />
<missing-glyph horiz-adv-x="230" 
 />
    <glyph glyph-name=".notdef" horiz-adv-x="230" 
 />
    <glyph glyph-name=".null" horiz-adv-x="0" 
 />
    <glyph glyph-name="nonmarkingreturn" horiz-adv-x="230" 
 />
    <glyph glyph-name="space" unicode=" " horiz-adv-x="230" 
 />
    <glyph glyph-name="space" unicode="&#xa0;" horiz-adv-x="230" 
 />
    <glyph glyph-name="exclam" unicode="!" horiz-adv-x="221" 
d="M49 295v288q0 60 32.5 86t94.5 26q-1 -7 -2 -19q-1 -11 -1.5 -29.5t-0.5 -48.5l-2 -288q0 -60 -32 -86t-93 -26q1 6 2 18q1 11 1 30t1 49zM165 23q-9 -17 -25 -26t-33 -9q-16 0 -29 7q-15 9 -23.5 23.5t-7.5 31.5q0 19 8 34q10 17 26 26.5t33 9.5q15 0 29 -8
q15 -8 23 -23t8 -32q0 -18 -9 -34z" />
    <glyph glyph-name="dollar" unicode="$" horiz-adv-x="560" 
d="M414 376q54 -38 80.5 -77.5t33 -77.5t-3.5 -73t-28 -62q-26 -39 -72 -64t-103 -34v-17q0 -31 0.5 -49.5t1.5 -29.5q1 -12 2 -18q-31 0 -49 6t-27 19.5t-11.5 34.5t-2.5 50q-45 3 -81.5 15.5t-62.5 28.5t-41.5 31.5t-19.5 24.5l3 4q12 15 20 20q10 6 21 6q13 0 28 -6
q8 -3 16 -6.5t18 -7.5q18 -7 42.5 -13.5t56.5 -9.5l1 237q-13 8 -26 14.5t-27 14.5q-73 41 -107.5 91.5t-29.5 106.5q3 40 20.5 70t44 50t59 31t67.5 13q0 25 3.5 42.5t12.5 28.5t26 16.5t46 5.5q-1 -6 -2 -18q-1 -11 -1.5 -29.5t-0.5 -48.5v-3q44 -8 77 -23.5t56 -31.5
q26 -18 45 -39l-2 -3q-9 -13 -20 -21q-11 -6 -22 -6q-12 0 -27 6q-8 3 -16 6.5t-19 7.5q-17 7 -35.5 11.5t-36.5 8.5v-179q24 -13 47.5 -26t45.5 -28zM179 566q-8 -26 9 -48t48 -42l1 133q-20 -4 -36 -13.5t-22 -29.5zM321 78q40 12 56.5 36.5t17.5 47.5q0 29 -20 52t-54 46
v-182z" />
    <glyph glyph-name="percent" unicode="%" horiz-adv-x="912" 
d="M724 694q22 -18 32 -41q8 -20 4.5 -48t-33.5 -64l-533 -541q-26 15 -37 38q-10 20 -6.5 49t38.5 71zM811 280q56 -48 56 -124q0 -35 -15.5 -67t-43.5 -55q-28 -24 -64.5 -37.5t-79.5 -13.5q-46 0 -83.5 13.5t-64.5 37.5q-26 24 -41 56t-15 68q0 37 15.5 68t43.5 55
q28 23 65 37t79 14q46 0 83.5 -14t64.5 -38zM663 67q9 0 22 3.5t24.5 13t19.5 27t8 45.5t-8 45.5t-19.5 27.5t-24.5 13.5t-22 3.5q-10 0 -23 -3.5t-24.5 -13.5t-19.5 -27.5t-8 -45.5t8 -45.5t19.5 -27t24.5 -13t23 -3.5zM101 416q-56 50 -56 124q0 36 15.5 68t42.5 55
q28 23 65 36.5t79 13.5q47 0 84.5 -13.5t63.5 -37.5q56 -48 56 -124q0 -36 -15 -67t-43 -55t-65 -37.5t-79 -13.5q-46 0 -83.5 13.5t-64.5 37.5zM249 630q-9 0 -22 -3.5t-24.5 -13.5t-19.5 -27.5t-8 -45.5t8 -45.5t19.5 -27.5t24.5 -13.5t22 -3.5t22 3.5t24.5 13.5
t19.5 27.5t8 45.5t-8 45.5t-19.5 27.5t-24.5 13.5t-22 3.5z" />
    <glyph glyph-name="ampersand" unicode="&#x26;" horiz-adv-x="822" 
d="M607 151q38 -24 83 -48.5t87 -43.5q-14 -32 -34 -51q-17 -17 -43.5 -23t-64.5 15q-20 11 -45.5 26t-54.5 34q-40 -32 -92 -53.5t-121 -23.5h-6q-78 0 -141 26.5t-96 76.5q-18 27 -28 62t-3.5 73t33 77.5t80.5 77.5l9 6q-23 35 -35.5 70.5t-12.5 70.5q0 37 14 69.5
t39.5 56t61 37t79.5 13.5q36 0 72.5 -9.5t66.5 -30t50 -51.5t24 -73q5 -56 -29.5 -106.5t-107.5 -91.5q-4 -2 -7.5 -4t-7.5 -4q33 -34 69.5 -64.5t82.5 -62.5q24 32 48.5 72t49.5 91q20 -8 32 -22q11 -12 14.5 -33t-9.5 -54q-6 -16 -20 -44.5t-37 -60.5zM252 523
q2 -17 9.5 -37t20.5 -42q27 14 50 27.5t39 28.5t23 31t2 35q-8 28 -31.5 37t-48.5 9q-10 0 -22 -5t-22.5 -15.5t-16.5 -27.5t-3 -41zM180 162q0 -15 7.5 -31.5t23 -30t41.5 -22t64 -8.5h11q5 1 15 1q59 6 112 42q-48 34 -96.5 73t-91.5 81q-40 -24 -63.5 -48.5t-22.5 -56.5z
" />
    <glyph glyph-name="quotesingle" unicode="'" horiz-adv-x="236" 
d="M40 421q9 25 18 54q8 25 16 56t15 66q8 39 22.5 59t28.5 28q17 10 35 9q27 0 35.5 -18.5t3 -46.5t-23 -61.5t-41.5 -63.5t-52.5 -53t-56.5 -29z" />
    <glyph glyph-name="parenleft" unicode="(" horiz-adv-x="294" 
d="M178 95q0 -74 19.5 -126.5t51.5 -86.5v-118q-44 18 -81 48t-64.5 71.5t-43 94.5t-15.5 117v399q0 64 15.5 116.5t43 94t64.5 71.5t81 48v-119q-32 -33 -51.5 -85t-19.5 -126v-399v0z" />
    <glyph glyph-name="parenright" unicode=")" horiz-adv-x="294" 
d="M116 95v399q0 74 -19.5 126t-51.5 85v119q43 -18 80.5 -48t65 -71.5t43 -94t15.5 -116.5v-399q0 -64 -15.5 -117t-43 -94.5t-65 -71.5t-80.5 -48v118q32 34 51.5 86.5t19.5 126.5z" />
    <glyph glyph-name="plus" unicode="+" horiz-adv-x="545" 
d="M500 267q0 -45 -25 -72t-71 -27h-82v-178q-45 0 -72 25t-27 71v82h-178q0 45 25 72t71 27h82v178q45 0 72 -25t27 -71v-82h178z" />
    <glyph glyph-name="comma" unicode="," horiz-adv-x="265" 
d="M45 -152q8 25 17 54q8 25 16 56t15 66q8 39 22.5 59t28.5 28q17 10 35 9q27 0 35.5 -18.5t3 -46.5t-23 -61.5t-41.5 -63.5t-52 -53t-56 -29z" />
    <glyph glyph-name="hyphen" unicode="-" horiz-adv-x="445" 
d="M357 323q0 -45 -25 -72t-71 -27h-216q0 45 25 72t71 27h216z" />
    <glyph glyph-name="period" unicode="." horiz-adv-x="218" 
d="M164 23q-9 -17 -25 -26t-33 -9t-29 8q-32 18 -32 55q0 17 9 34q10 17 26 26t33 9t29 -8q15 -8 23 -23t8 -32q0 -18 -9 -34z" />
    <glyph glyph-name="slash" unicode="/" horiz-adv-x="702" 
d="M620 694q22 -18 32 -41q8 -20 4.5 -48t-33.5 -64l-533 -541q-26 15 -37 38q-10 20 -6.5 49t38.5 71l535 536v0z" />
    <glyph glyph-name="zero" unicode="0" horiz-adv-x="631" 
d="M315 702q40 0 89 -18t91.5 -60t71.5 -110.5t29 -170.5t-29 -170.5t-71.5 -110.5t-91.5 -60t-89 -18t-89 18t-91.5 60t-71 110.5t-28.5 170.5t28.5 170.5t71 110.5t91.5 60t89 18zM315 69q42 0 69.5 27t44 68t23 89t6.5 90t-6.5 90t-23 89t-44 68t-69.5 27t-69.5 -27
t-44 -68t-23 -89t-6.5 -90t6.5 -90t23 -89t44 -68t69.5 -27z" />
    <glyph glyph-name="one" unicode="1" horiz-adv-x="377" 
d="M303 97q0 -30 0.5 -49t1.5 -30q1 -12 2 -18q-62 0 -95 26.5t-33 85.5v36v48t0.5 54.5t0.5 55.5q1 64 2 137q-13 -6 -38 -15t-51 -12.5t-47 3t-26 32.5q50 28 78.5 56.5t46 55t28 49.5t23.5 41q3 5 6.5 8.5l7.5 7.5q14 12 35.5 19t57.5 7v-598z" />
    <glyph glyph-name="two" unicode="2" horiz-adv-x="540" 
d="M374 99h135q0 -45 -25 -72t-71 -27l-355 1l-1 1q-20 53 -28 104t1 98t38 89.5t83 80.5q39 27 82 50.5t77.5 46.5t54 48t10.5 54q-4 15 -14.5 24t-24 14t-28.5 6.5t-27 1.5q-26 1 -58.5 -5.5t-61.5 -17.5q-10 -4 -18 -7.5t-16 -6.5q-15 -6 -28 -6q-12 0 -21 6
q-10 6 -21 20l-2 3q26 28 63 50q32 19 77.5 35t107.5 16q36 0 71.5 -9.5t64 -30t47.5 -51.5t23 -73q5 -56 -30.5 -103.5t-108.5 -88.5q-44 -24 -83.5 -45.5t-69.5 -43t-47.5 -44t-17.5 -48.5q0 -16 2.5 -29t5.5 -22q4 -11 9 -20z" />
    <glyph glyph-name="three" unicode="3" horiz-adv-x="529" 
d="M219 706q52 0 90 -14.5t63.5 -38.5t38 -55t12.5 -65q0 -32 -12 -60t-33 -51q59 -24 95 -78t36 -135q0 -40 -18 -82t-55.5 -75t-94.5 -51.5t-135 -10.5q-41 4 -73.5 14t-56 22t-37.5 24t-19 20q3 6 7 11q3 5 7.5 9.5t9.5 7.5q11 7 25 7t26 -4t26.5 -9t34.5 -9.5t50 -6.5
q48 -3 81.5 7t55 28.5t31.5 44t10 53.5q1 44 -12.5 73.5t-35.5 47.5t-49 25t-54 6h-18q-46 0 -68 18.5t-22 63.5h73q54 0 84.5 20.5t30.5 68.5q0 24 -8.5 40.5t-22 27t-30.5 15t-33 4.5q-20 0 -39 -4t-34 -9t-28.5 -10t-26.5 -5q-15 0 -26 7q-10 6 -23 24l-2 3l3 3
q33 36 78.5 57t97.5 21z" />
    <glyph glyph-name="four" unicode="4" horiz-adv-x="565" 
d="M445 86q0 -11 0.5 -25.5t1.5 -28.5q1 -16 1 -32q-62 0 -95 26t-33 86v87h-199q-46 0 -71 27t-25 72q10 42 38.5 100.5t68 116.5t87.5 107t98 73q61 0 94 -25.5t33 -85.5v-286q46 0 71 -27t25 -72h-96zM321 298l4 282q-19 -14 -44.5 -42.5t-52 -66.5t-51 -82.5
t-41.5 -90.5h185z" />
    <glyph glyph-name="five" unicode="5" horiz-adv-x="552" 
d="M170 549q-2 -12 -3.5 -27t1 -28t11 -21.5t28.5 -7.5q87 4 148 -15.5t99 -54.5t54 -81.5t13 -96.5q-3 -41 -20.5 -82t-51.5 -74t-84 -53.5t-118 -20.5q-52 0 -95 15.5t-75 34.5q-37 22 -67 50l2 3q9 13 20 21q10 6 21 6q7 0 13.5 -2t14.5 -4q4 -2 18.5 -8t37 -13
t50.5 -12.5t60 -5.5q42 0 70.5 14.5t46 36t25 45.5t7.5 43q0 70 -48 109.5t-129 39.5h-66q-51 0 -77 27t-26 63q0 18 0.5 41t3 47t7 46.5t12.5 38.5q20 37 61 53q13 5 27 8.5t30 5.5q21 2 44 2.5t48 0.5h63q65 0 100.5 2t43.5 3h3l6 1v-6q0 -33 -12 -54q-6 -11 -14 -18
t-17 -12q-20 -10 -42.5 -12t-45.5 -2h-154q-25 0 -33 -14t-11 -32z" />
    <glyph glyph-name="six" unicode="6" horiz-adv-x="565" 
d="M465 393q30 -33 47.5 -76.5t17.5 -93.5t-16 -93.5t-45 -75.5q-28 -31 -66.5 -49.5t-86.5 -20.5h-4q-72 0 -125 27.5t-87 75.5t-50 113.5t-14 142.5q1 68 14.5 121t36 92.5t51 67.5t59.5 45t61.5 25t57.5 8v1q42 0 74.5 -9.5t55.5 -22.5t37.5 -26.5t19.5 -21.5
q-4 -6 -8 -11t-7.5 -9.5t-8.5 -7.5q-11 -7 -25 -7q-15 0 -26.5 4.5t-26 10t-34.5 10t-51 4.5q-33 0 -59 -17.5t-44.5 -46t-29 -66.5t-12.5 -78q34 30 71 42t65 12q46 0 86.5 -19t71.5 -51zM305 70q14 0 32.5 6.5t35 24t27 48t9.5 78.5q-2 48 -14.5 78t-30 46t-36.5 21.5
t-33 4.5q-14 0 -32.5 -6.5t-35 -24t-27.5 -48t-9 -78.5q1 -48 14 -78t30.5 -46t36.5 -21t33 -5z" />
    <glyph glyph-name="seven" unicode="7" horiz-adv-x="461" 
d="M226 53q-14 -32 -37 -44t-46 -14q-27 -3 -57 5q67 161 121 289q23 55 45 108t40 95.5t30 70.5t14 33h-200q-23 0 -46 2.5t-42 12.5q-20 9 -32 30q-11 22 -11 54v6l6 -1h2q8 -1 35.5 -3t92.5 -2h301q6 -18 8 -41q2 -20 -1 -47.5t-16 -61.5q-2 -5 -12 -28.5t-25 -58.5
t-33 -79t-37 -89q-45 -106 -100 -237z" />
    <glyph glyph-name="eight" unicode="8" horiz-adv-x="629" 
d="M473 421q22 -13 44 -30.5t39 -42t27.5 -57t10.5 -74.5q0 -41 -17 -82t-52 -74t-87.5 -53.5t-123.5 -20.5t-123 20.5t-87 53.5t-52 74t-17 82q0 42 11 74.5t28 57.5t39 42.5t43 29.5q-21 23 -33.5 50.5t-12.5 59.5q0 36 15 68t41 56q27 24 64.5 37.5t83.5 13.5
q47 0 84.5 -13.5t64.5 -37.5q26 -24 40.5 -56t14.5 -68q0 -32 -12 -59.5t-33 -50.5zM314 617q-18 0 -33.5 -7t-27 -18.5t-18 -27.5t-6.5 -34t6.5 -34t18 -28t27 -19t33.5 -7t33.5 7t27 19t18 28t6.5 34t-6.5 34t-18 27.5t-27 18.5t-33.5 7zM314 72q38 0 65.5 11.5t45 31
t25.5 45.5t8 56t-8 56t-25.5 45.5t-45 31t-65.5 11.5t-65 -11.5t-44.5 -31t-25.5 -45.5t-8 -56t8 -56t25.5 -45.5t44.5 -31t65 -11.5z" />
    <glyph glyph-name="nine" unicode="9" horiz-adv-x="566" 
d="M101 294q-31 32 -48.5 75.5t-17.5 93.5t16 93.5t45 76.5q28 31 66.5 49.5t86.5 20.5h5q72 0 124.5 -27.5t86.5 -75.5t50 -114t15 -142q-2 -102 -31 -171t-71 -111t-90.5 -60t-88.5 -18q-42 0 -74.5 9.5t-55.5 22t-37 26t-19 22.5q3 5 7 10q3 5 7.5 9.5t9.5 7.5q11 7 25 7
t26 -5.5t26.5 -11.5t34.5 -10t50 -1q36 3 64 22.5t47 48t28 64t8 71.5q-31 -29 -64 -40.5t-73 -11.5q-47 0 -87.5 19t-70.5 51zM261 617q-14 -1 -32.5 -7.5t-35 -24t-27.5 -48t-9 -78.5q1 -48 14 -77.5t30 -46t36 -21.5t33 -5t32.5 7t35 24t27 47.5t9.5 78.5q-2 48 -14.5 78
t-29.5 46.5t-36 21.5t-33 5z" />
    <glyph glyph-name="colon" unicode=":" horiz-adv-x="218" 
d="M164 23q-9 -17 -25 -26t-33 -9t-29 8q-32 18 -32 55q0 17 9 34q10 17 26 26t33 9t29 -8q15 -8 23 -23t8 -32q0 -18 -9 -34zM164 302q-9 -17 -25 -26t-33 -9t-29 8q-32 18 -32 55q0 17 9 34q10 17 26 26t33 9t29 -8q15 -8 23 -23t8 -32q0 -18 -9 -34z" />
    <glyph glyph-name="semicolon" unicode=";" horiz-adv-x="247" 
d="M193 302q-9 -17 -25 -26t-33 -9t-29 8q-32 18 -32 55q0 17 9 34q10 17 26 26t33 9t29 -8q15 -8 23 -23t8 -32q0 -18 -9 -34zM25 -152q28 6 56 29t52 53t41.5 63.5t23 61.5t-3 46.5t-35.5 18.5q-18 1 -35 -9q-14 -8 -28.5 -28t-22.5 -59q-7 -35 -15 -66t-16 -56
q-9 -29 -17 -54z" />
    <glyph glyph-name="less" unicode="&#x3c;" horiz-adv-x="359" 
d="M270 292l-60 -63q14 -13 31.5 -29t34.5 -31q21 -20 32.5 -37.5t15.5 -33t2.5 -29t-6.5 -24.5q-12 -26 -41 -45l-234 233l216 234q30 -21 43 -47q6 -11 8.5 -25t-0.5 -30t-13 -34.5t-29 -38.5z" />
    <glyph glyph-name="equal" unicode="=" horiz-adv-x="545" 
d="M500 233q0 -45 -25 -72t-71 -27h-359q0 45 25 72t71 27h359zM500 421q0 -45 -25 -72t-71 -27h-359q0 45 25 72t71 27h359z" />
    <glyph glyph-name="greater" unicode="&#x3e;" horiz-adv-x="357" 
d="M88 292q-20 20 -29.5 38.5t-12.5 34.5t-0.5 30t8.5 25q13 26 43 47l216 -234l-234 -233q-30 19 -41 45q-5 11 -7 24.5t2.5 29t16 33t32.5 37.5q17 15 34.5 31t31.5 29l-60 63v0z" />
    <glyph glyph-name="question" unicode="?" horiz-adv-x="585" 
d="M334 23q-21 -35 -58 -35q-16 0 -30 7q-15 9 -23 23.5t-8 31.5t9 34t25 26.5t33 9.5q15 0 29 -8q16 -8 24 -23t8 -32q0 -18 -9 -34zM538 512q-5 -35 -19 -57.5t-33 -38t-41.5 -29t-45 -31t-42.5 -42.5t-34 -64q-10 -29 -24.5 -41t-28.5 -14q-16 -4 -33 3q-21 65 -16 109.5
t25 75t48.5 51t55 37.5t45.5 35t19 43q0 15 -6.5 27.5t-21.5 21.5t-40 14t-63 5q-28 0 -56 -5.5t-51.5 -12t-39 -13t-19.5 -7.5q-8 -3 -14.5 -5t-13.5 -2q-11 0 -21 7q-8 5 -20 20l-3 3q24 28 58 50q29 19 73.5 34.5t106.5 15.5q136 0 201.5 -52.5t53.5 -137.5z" />
    <glyph glyph-name="at" unicode="@" horiz-adv-x="859" 
d="M45 302q0 88 29.5 161t80.5 125.5t120.5 83t149.5 33.5q64 2 127.5 -12.5t116.5 -51t91 -97.5t51 -151q7 -49 -8 -81.5t-45 -49.5t-71.5 -17.5t-87.5 14.5q-10 -54 -41 -92q-45 -56 -123 -65q-5 -1 -10 -1h-11q-17 0 -36.5 3t-38.5 11q-20 8 -36.5 20.5t-27.5 31.5
q-16 26 -17 61v5q0 32 14 55q13 23 37 39q23 15 52 22t60 7q22 0 43 -3.5t41 -9.5q-1 24 -11 46q-9 25 -33 39q-8 4 -18 6.5t-23 2.5q-6 0 -9 -1q-12 0 -24 -3.5t-24 -7.5t-24 -7t-23 -3q-12 0 -22 6q-12 7 -19 19l-1 3l2 3q26 27 60 44t75 19q5 1 15 1q39 0 71.5 -14
t55.5 -40q23 -25 35.5 -58.5t14.5 -75.5q18 -6 32 -6t24 7.5t15 24.5t5 45q0 61 -24 105.5t-61 72.5t-81.5 39.5t-86.5 7.5q-50 -5 -95 -28.5t-79 -64t-54.5 -97t-20.5 -126.5q0 -82 18 -142t48 -99.5t67.5 -58.5t76.5 -19q31 0 51 4.5t34.5 10t26 10t26.5 4.5q14 0 25 -7
q5 -3 8.5 -7.5t7.5 -9.5t8 -11q-5 -8 -19.5 -21.5t-37.5 -26.5t-55.5 -22.5t-74.5 -9.5q-66 0 -127.5 24t-109.5 74t-76.5 126t-28.5 181zM490 216q8 16 11.5 33.5t4.5 31.5q-2 0 -3 1l-18 3q-11 2 -25 4t-29 2q-24 0 -43 -6q-21 -6 -33 -21q-7 -10 -10 -26q0 -2 -0.5 -4
t-0.5 -4q0 -8 2.5 -18t10.5 -18t20.5 -14t34.5 -7q3 0 5.5 0.5t5.5 0.5q25 1 41 14q8 5 14.5 12.5t11.5 15.5z" />
    <glyph glyph-name="A" unicode="A" 
d="M667 56q4 -10 8 -19t7 -17q4 -9 7 -18q-30 -8 -57 -5q-23 2 -46.5 14t-36.5 44q-6 14 -22 55t-38 96h-284q-22 -55 -38 -96t-22 -55q-14 -32 -37 -44t-46 -14q-27 -3 -57 5q3 9 7 18q3 8 6.5 17t8.5 19q7 18 24.5 62t40.5 101t48.5 120t48 120t40.5 100.5t25 61.5
q11 28 23.5 44.5t24.5 25.5t23.5 11.5t21.5 2.5t21.5 -2.5t23.5 -11.5t24.5 -25.5t23.5 -44.5q7 -18 24.5 -61.5t40.5 -100.5t48.5 -120t48.5 -120t40.5 -101t24.5 -62zM451 305l-39 97.5t-33 85.5q-18 44 -32 84q-16 -40 -33 -84q-15 -38 -33 -85.5t-38 -97.5h208z" />
    <glyph glyph-name="B" unicode="B" horiz-adv-x="603" 
d="M328 -11q-65 0 -117 18.5t-89 58t-57 102t-20 151.5v209q0 68 21 107q20 37 61 53q24 10 57 13q21 3 46.5 3.5t43.5 0.5q52 0 90 -14.5t63.5 -38.5t38 -55t12.5 -65q0 -32 -12 -59.5t-34 -50.5q30 -11 55.5 -29t44.5 -43.5t30 -58.5t11 -73q0 -45 -17.5 -86t-49.5 -73
t-77 -51t-101 -19zM168 443h85q54 0 84.5 20t30.5 68q0 24 -8.5 40.5t-22 27t-30.5 15.5t-33 5h-30t-35 -4.5t-29 -14.5t-12 -30v-127zM328 88q32 0 55 10.5t37.5 28t21 41t6.5 50.5q0 44 -15 72.5t-38.5 44t-52 21.5t-54.5 5q-24 -1 -45.5 -1h-38.5q-19 0 -36 1v-43
q-2 -67 8 -111.5t31 -70.5t51.5 -37t69.5 -11z" />
    <glyph glyph-name="C" unicode="C" horiz-adv-x="564" 
d="M373 -10q-66 0 -128 23t-109.5 68t-76.5 112t-29 155t29 155t76.5 112t109.5 67.5t128 22.5q42 0 74 -9.5t55.5 -22.5t37.5 -26.5t19 -21.5q-3 -6 -7 -11q-3 -5 -7.5 -9.5t-9.5 -6.5q-11 -7 -25 -7t-26 4.5t-26.5 9.5t-34.5 9.5t-50 4.5q-39 0 -76.5 -16t-67.5 -49
t-48 -84.5t-18 -121.5q0 -71 18 -122t48 -84.5t67.5 -49.5t76.5 -16q30 0 50 4.5t34.5 9.5t26.5 9.5t26 4.5t25 -7q11 -8 17 -16q4 -5 7 -11q-5 -9 -19 -22.5t-37.5 -26t-55.5 -22t-74 -9.5z" />
    <glyph glyph-name="D" unicode="D" horiz-adv-x="638" 
d="M271 705q66 0 127.5 -22.5t109.5 -67.5t76.5 -112t28.5 -155t-29 -155t-77 -112t-110 -68t-128 -23q-17 0 -43 0.5t-47 2.5q-16 2 -30 5.5t-27 8.5q-40 16 -60 52q-11 20 -16.5 46t-5.5 61l2 362q0 68 21 107q20 37 61 53q24 10 57 13q21 3 46.5 3.5t43.5 0.5zM271 76
q39 0 76.5 13.5t67 45t48 83.5t18.5 130t-18.5 130t-48 83.5t-67 44.5t-76.5 13h-33.5t-34.5 -4.5t-27 -14.5t-11 -30v-445q0 -20 11 -30t27 -14.5t34.5 -4.5h33.5z" />
    <glyph glyph-name="E" unicode="E" horiz-adv-x="524" 
d="M519 105v-7q0 -34 -12 -53q-10 -20 -31 -30q-19 -11 -43.5 -12.5t-44.5 -2.5q-91 -4 -156.5 9.5t-108 51.5t-63 103.5t-20.5 164.5v189q0 68 21 107q11 20 26 32t35 20q13 5 27 8.5t30 5.5q21 2 44 3t48 1h88q64 0 92 2t36 3h2h6v-6q0 -34 -12 -53q-11 -19 -31 -31
q-20 -10 -42.5 -12t-45.5 -2h-170q-6 -1 -10 -2t-7 -3q-6 -3 -9 -8q-4 -5 -5 -13.5t-1 -19.5l3 -122h246q0 -45 -25 -72t-71 -27h-151q-2 -67 9 -111.5t35.5 -70.5t64 -37t94.5 -11q65 0 100.5 2t43.5 3h2z" />
    <glyph glyph-name="F" unicode="F" horiz-adv-x="470" 
d="M169 97q0 -30 0.5 -49t1.5 -30q1 -12 2 -18q-61 0 -94 25.5t-33 85.5l-1 407q0 69 22 107q11 20 26 32t34 20q13 5 27 8.5t30 5.5q21 2 44 3t48 1h88q64 0 92 2t36 3h2h6v-6q0 -34 -12 -53q-10 -20 -31 -31q-19 -10 -42 -12t-46 -2h-170q-10 -1 -17 -5q-6 -3 -9 -8
q-6 -11 -6 -33l1 -122h248q0 -45 -25 -72t-71 -27h-152z" />
    <glyph glyph-name="G" unicode="G" horiz-adv-x="655" 
d="M425 302q-46 0 -71 27t-25 72h138q45 0 76 -14q30 -12 47 -37t23.5 -57t6.5 -69v-41q0 -43 -15.5 -78.5t-47 -61t-78 -39.5t-107.5 -14q-66 0 -127.5 23t-109.5 68t-76.5 112t-28.5 155t28.5 155t76.5 112t109.5 67.5t127.5 22.5q42 0 74.5 -9.5t55.5 -22.5t37.5 -26.5
t19.5 -21.5q-4 -6 -8 -11t-7.5 -9.5t-8.5 -6.5q-11 -7 -26 -7q-14 0 -26 4.5t-26.5 9.5t-34.5 9.5t-50 4.5q-39 0 -76.5 -16t-67.5 -49t-48 -84.5t-18 -121.5q0 -71 18 -122t48 -84.5t67.5 -49.5t76.5 -16q41 0 66.5 9.5t39.5 26.5t19 41.5t5 54.5v49q0 15 -3 26
q-4 10 -12 14q-4 3 -17 5h-24h-21z" />
    <glyph glyph-name="H" unicode="H" horiz-adv-x="622" 
d="M452 583q0 60 31.5 86t93.5 26q-1 -7 -2 -19q-1 -11 -1.5 -29.5t-0.5 -48.5l-1 -501q0 -31 0.5 -49.5t1.5 -29.5q1 -12 2 -18q-62 0 -94 25.5t-32 85.5v214h-282v-228q0 -31 0.5 -49.5t1.5 -29.5q1 -12 2 -18q-62 0 -94.5 25.5t-32.5 85.5l2 472q0 60 31.5 86t93.5 26
q-1 -7 -2 -19q-1 -11 -1.5 -29.5t-0.5 -48.5v-174h282z" />
    <glyph glyph-name="I" unicode="I" horiz-adv-x="221" 
d="M49 97v487q0 60 32.5 85.5t94.5 25.5q-1 -6 -2 -18q-1 -11 -1.5 -29.5t-0.5 -48.5l-2 -487q0 -60 -32 -86t-93 -26q1 6 2 18q1 11 1 30t1 49z" />
    <glyph glyph-name="J" unicode="J" horiz-adv-x="371" 
d="M322 229q0 -50 -14.5 -93.5t-43.5 -75.5q-28 -33 -68.5 -52t-91.5 -19q-27 0 -51 11q-23 9 -36 30q-7 13 -7 32v10.5t2 10.5l2 6l6 -2q14 -5 36.5 -8.5t45.5 -3.5q7 0 19 2t26 9t26.5 19.5t21.5 33.5q6 14 8 33t2 43l2 368q0 60 28.5 86t90.5 26q-1 -7 -2 -19
q-1 -11 -1.5 -29.5t-0.5 -48.5v-369z" />
    <glyph glyph-name="K" unicode="K" horiz-adv-x="567" 
d="M168 97q0 -31 0.5 -49.5t1.5 -29.5q1 -12 2 -18q-62 0 -94.5 25.5t-32.5 85.5l1 472q0 60 32 86t94 26q-1 -7 -2 -19q-1 -11 -1.5 -29.5t-0.5 -48.5v-174q15 12 40.5 32.5t52.5 42t50.5 40t33.5 26.5q41 32 67.5 42t46.5 12q24 2 38.5 -4t22.5 -14q10 -10 14 -22
q-8 -6 -33.5 -27t-58.5 -48t-68 -55.5t-62 -50.5l182 -268l68 -100q-9 -9 -20 -15q-9 -6 -21 -10.5t-24 -4.5q-36 0 -62 24.5t-48 56.5q-8 12 -22.5 33.5t-31.5 46.5t-35 51.5t-33.5 49.5t-26.5 40t-15 22q-17 -14 -31 -25.5t-24 -19.5v-182z" />
    <glyph glyph-name="L" unicode="L" horiz-adv-x="450" 
d="M49 604q-1 30 -1 48.5t-1 29.5q-1 12 -2 18q122 0 122 -117l2 -254q0 -65 5.5 -109t23 -71t50 -38.5t86.5 -11.5q25 0 45.5 0.5t34.5 1.5q17 1 30 3v-6q0 -16 -7.5 -33.5t-23 -31.5t-39 -23.5t-56.5 -9.5q-80 0 -132 16.5t-82.5 55.5t-42.5 103.5t-12 159.5v269z" />
    <glyph glyph-name="M" unicode="M" horiz-adv-x="751" 
d="M702 97q0 -30 0.5 -49t1.5 -30q1 -12 2 -18q-61 0 -94 25.5t-33 85.5l6 467q-28 -81 -54 -151q-11 -30 -22.5 -61.5t-22 -59.5t-19.5 -51.5t-16 -38.5q-15 -33 -38 -45.5t-44 -14.5q-25 -2 -51 7l-154 415l4 -481q0 -30 0.5 -49t1.5 -30q1 -12 2 -18q-62 0 -94.5 25.5
t-32.5 85.5v576l4 2q6 1 14 3q7 1 15.5 2t19.5 1q32 0 60 -8t52.5 -26.5t45.5 -50t39 -78.5q1 -4 5.5 -16t10.5 -29t13 -37t14 -41q17 -48 37 -107l79 230q18 47 39 78.5t45.5 50t52.5 26.5t60 8q11 0 19.5 -1t15.5 -2q8 -2 14 -3l4 -2z" />
    <glyph glyph-name="N" unicode="N" horiz-adv-x="662" 
d="M614 8q-7 -2 -16 -4q-8 -2 -17.5 -3t-20.5 -1q-71 0 -115.5 32t-77.5 99q-8 15 -21 42.5t-28.5 62t-33 73.5t-34.5 77q-40 89 -86 192l4 -481q1 -30 1.5 -49t1.5 -30q1 -12 2 -18q-62 0 -95 25.5t-33 85.5v576q7 2 16 4q8 2 17.5 3t20.5 1q79 0 127 -34.5t85 -106.5
q5 -10 15.5 -32.5t24 -53t29.5 -65.5t32 -71q37 -84 80 -183l-3 435q0 59 33 85t95 26q-1 -7 -2 -19q-1 -11 -1.5 -29.5t-0.5 -48.5z" />
    <glyph glyph-name="O" unicode="O" horiz-adv-x="744" 
d="M372 706q66 0 127.5 -23t109.5 -68t76.5 -111.5t28.5 -154.5t-28.5 -155t-76.5 -112.5t-109.5 -68.5t-127.5 -23t-127.5 23t-109.5 68.5t-76.5 112.5t-28.5 155t28.5 154.5t76.5 111.5t109.5 68t127.5 23zM372 76q39 0 76.5 16t67.5 50t48 85t18 122q0 70 -18 121t-48 84
t-67.5 49t-76.5 16t-76.5 -16t-67.5 -49t-48 -84t-18 -121q0 -71 18 -122t48 -85t67.5 -50t76.5 -16z" />
    <glyph glyph-name="P" unicode="P" horiz-adv-x="581" 
d="M169 97q0 -31 0.5 -49.5t1.5 -29.5q1 -12 2 -18q-61 0 -94.5 25.5t-33.5 85.5l2 423q0 48 17 80t47 51.5t70.5 28t88.5 11.5q47 3 99 -7t97 -36.5t75.5 -71.5t33.5 -114q2 -42 -10.5 -86.5t-41.5 -80.5t-77 -59.5t-117 -23.5q-34 0 -62.5 4t-50.5 9q-26 6 -47 14v-156z
M307 324q64 0 104.5 38t37.5 114q-2 40 -17.5 67t-40 42t-56.5 20t-65 2q-30 -3 -49 -10.5t-30.5 -18t-16 -23.5t-4.5 -26v-176q18 -8 40 -14q19 -5 43.5 -10t53.5 -5z" />
    <glyph glyph-name="Q" unicode="Q" horiz-adv-x="745" 
d="M715 349q0 -114 -46.5 -192.5t-119.5 -120.5q14 -34 28.5 -67.5t25.5 -59.5q13 -31 25 -59q-30 -9 -57 -6q-23 2 -46.5 14t-36.5 44q-2 6 -13.5 32.5t-26.5 63.5q-40 -8 -75 -8q-66 0 -128 23t-109.5 68.5t-76.5 112.5t-29 155t29 154.5t76.5 111.5t109.5 68t128 23
t127.5 -23t109 -68t76.5 -111.5t29 -154.5zM372 76q11 0 20.5 1t20.5 3q-14 31 -25.5 59.5t-21.5 51.5q-11 26 -21 49q30 7 57 5q23 -2 46 -13.5t37 -43.5q2 -5 8 -19t15 -36q33 34 53.5 87t20.5 129q0 70 -18 121t-48 84t-67.5 49t-76.5 16t-76.5 -16t-67 -49t-47.5 -84
t-18 -121q0 -71 18 -122t47.5 -85t67 -50t76.5 -16z" />
    <glyph glyph-name="R" unicode="R" horiz-adv-x="648" 
d="M172 97q0 -31 0.5 -49.5t1.5 -29.5q1 -12 2 -18q-62 0 -94 25.5t-32 85.5v423q0 48 17 80t46.5 51.5t70.5 28t89 11.5q31 2 66 -2.5t69.5 -16t65.5 -29.5t54.5 -44.5t37 -60.5t11.5 -76q-2 -59 -37.5 -105t-102.5 -66q23 -8 39 -25.5t28.5 -42t25 -53.5t27.5 -59
q11 -23 24 -41.5t24 -32.5q12 -16 25 -28q-9 -9 -20 -15q-11 -5 -26 -8t-36 0q-24 3 -44 14t-40 34t-42.5 61t-51.5 95q-17 32 -41 48.5t-59 26.5q-6 2 -11.5 3t-10.5 3q-7 1 -19.5 3.5t-25.5 4.5q-15 3 -31 6v-202zM273 607q-30 -3 -49.5 -10.5t-31 -18t-16.5 -23.5t-5 -26
v-34.5t0.5 -43.5t0.5 -40.5v-24.5q23 -5 47 -9q20 -3 44 -5.5t47 -2.5q63 0 99 25t43 82q4 37 -11 63.5t-41 42t-60 22t-67 3.5z" />
    <glyph glyph-name="S" unicode="S" horiz-adv-x="560" 
d="M259 -10q-51 0 -91.5 12t-69.5 28.5t-46.5 33.5t-21.5 27l3 3q9 13 20 21q10 6 21 6q7 0 13.5 -2t14.5 -5q8 -2 16 -5.5t18 -8.5q20 -8 47 -14.5t65 -8.5h11q37 0 63 8.5t42 22t23 30t7 31.5q1 26 -15.5 47.5t-45.5 41.5t-68 41t-83 45q-72 41 -107 91.5t-30 106.5
q4 42 23 73t47.5 51.5t64 30t71.5 9.5q61 0 107 -16t78 -35q37 -22 63 -50l-2 -3q-12 -15 -20 -20q-10 -7 -22 -7q-11 0 -27 7q-8 3 -16.5 6.5t-18.5 7.5q-29 11 -61.5 17.5t-57.5 5.5q-13 0 -28 -2t-28.5 -7t-24 -14t-14.5 -23q-9 -30 12.5 -53t58 -45t81 -43.5t83.5 -48.5
q54 -38 80.5 -77.5t32.5 -77.5t-4 -73t-28 -62q-32 -50 -95.5 -76.5t-140.5 -26.5z" />
    <glyph glyph-name="T" unicode="T" horiz-adv-x="562" 
d="M342 97q0 -30 0.5 -49t1.5 -30q1 -12 2 -18q-62 0 -95 26t-33 86l2 484h-220q0 45 25 72t71 27h466q0 -45 -25 -72t-71 -27h-125z" />
    <glyph glyph-name="U" unicode="U" horiz-adv-x="655" 
d="M611 319q0 -89 -20.5 -151t-58 -102t-90.5 -58t-117 -18q-65 0 -117.5 18t-89.5 58t-57.5 102t-20.5 151l3 265q0 60 32 85.5t94 25.5q-1 -6 -2 -18q-1 -11 -1.5 -30t-0.5 -49v-279q-2 -67 8 -111.5t31 -70.5t51.5 -37t69.5 -11t69.5 11t51.5 37t31 70.5t9 111.5l3 265
q0 60 32 85.5t94 25.5q-1 -6 -2 -18q-1 -11 -1.5 -30t-0.5 -49v-279z" />
    <glyph glyph-name="V" unicode="V" horiz-adv-x="667" 
d="M667 695q-61 -159 -113 -291q-22 -57 -44.5 -113t-42 -104t-35 -83.5t-23.5 -50.5q-17 -32 -40 -44t-43 -14q-25 -3 -49 5l-277 695q24 4 48.5 3.5t45.5 -8t38.5 -23t28.5 -41.5q1 -4 9.5 -25.5t21 -54t27.5 -72.5t31 -81q37 -97 84 -217q46 120 83 217q16 41 31 81
t27.5 72.5t21 54t10.5 25.5q11 26 28.5 41.5t38.5 23t45 8t48 -3.5z" />
    <glyph glyph-name="W" unicode="W" horiz-adv-x="836" 
d="M592 161q23 105 43 195q9 38 17.5 77t16.5 73t14 61t10 41q11 44 35 62t48 22q28 4 60 -5q-1 -5 -3 -13q-2 -7 -4.5 -16.5t-5.5 -23.5q-31 -140 -58 -257q-12 -50 -23.5 -99.5t-22 -92t-19.5 -73.5t-14 -44q-14 -36 -42.5 -51t-57.5 -19q-33 -4 -71 2q-22 100 -40 192
q-8 39 -16.5 80t-16 79t-14 71.5t-10.5 57.5q-6 -32 -13 -73t-14.5 -85.5t-15.5 -88t-15.5 -80.5t-14.5 -64.5t-13 -37.5q-16 -29 -44 -40.5t-55 -13.5q-32 -3 -67 3q-37 156 -69 286q-14 55 -27 110.5t-24.5 103t-20 83t-12.5 51.5q-4 14 -6 23.5t-4 16.5q-2 8 -3 13
q31 9 59 5q24 -4 48 -22t36 -62q4 -14 10 -41t14 -61t16.5 -73t17.5 -77q20 -90 43 -195q22 119 41 218q8 42 16.5 84t16.5 77.5t14.5 61.5t11.5 37q14 32 36.5 44t44.5 14q25 2 52 -6q4 -11 11.5 -39.5t16.5 -68t18.5 -86t19.5 -93.5q23 -110 49 -243z" />
    <glyph glyph-name="X" unicode="X" horiz-adv-x="665" 
d="M660 46q-21 -26 -46 -37q-11 -5 -23 -7.5t-25 0t-27 10t-28 23.5l-205 229l-255 -264q-27 15 -38 38q-10 20 -6 49.5t39 71.5q5 5 19 20t32.5 34t39.5 40.5t39.5 40.5t32.5 33t19 18l-147 175q-19 21 -28.5 39.5t-12.5 35t-0.5 30.5t8.5 25q13 26 42 45l230 -269l261 269
q22 -18 32 -41q8 -20 4.5 -48.5t-33.5 -64.5q-5 -5 -18.5 -20.5t-31.5 -35t-38.5 -42t-39 -43t-34 -36.5t-22.5 -23z" />
    <glyph glyph-name="Y" unicode="Y" horiz-adv-x="569" 
d="M345 86q1 -21 1.5 -36t0.5 -25v-14q0 -3 1 -5v-6q-62 0 -95 26t-33 86v122q-9 21 -24.5 53.5t-33.5 71t-37.5 79.5t-37 79t-32.5 69t-23 49q-10 20 -16 35q-4 9 -6 18q28 7 54 4q23 -2 46.5 -14.5t39.5 -42.5q6 -11 14.5 -29.5t19 -40.5t22.5 -46t23 -48q26 -55 55 -118
q29 63 55 118q11 24 22.5 48t22 46t19.5 40.5t15 29.5q16 30 39.5 42.5t46.5 14.5q26 3 55 -4q-3 -9 -7 -18q-6 -15 -16 -35q-8 -18 -23 -49.5t-33 -69.5t-37.5 -80t-38 -81t-34.5 -72.5t-25 -53.5v-143z" />
    <glyph glyph-name="Z" unicode="Z" horiz-adv-x="546" 
d="M446 451q-8 -9 -25.5 -29t-40.5 -46.5t-50 -57t-54 -61.5q-63 -72 -139 -158h258q23 0 46 -2t42 -12q21 -11 31 -30q12 -21 12 -54v-6h-6l-2 1q-8 1 -36 2.5t-92 1.5h-363q-2 7 -4 16q-3 15 -3 38q0 39 7 67t18.5 49.5t25.5 39t29 34.5l312 352h-236q-23 0 -46 2.5
t-42 12.5q-21 10 -31 30q-12 21 -12 54v6l6 -1h2q8 -1 35.5 -3t92.5 -2h338q1 -7 3 -16q2 -8 3 -17t1 -20q0 -36 -6.5 -63.5t-18 -49.5t-26 -40.5t-29.5 -37.5z" />
    <glyph glyph-name="backslash" unicode="\" horiz-adv-x="699" 
d="M76 694l535 -536q34 -41 38 -71t-6 -49q-11 -23 -37 -38l-533 541q-31 36 -34 64t5 48q10 23 32 41z" />
    <glyph glyph-name="grave" unicode="`" horiz-adv-x="833" 
 />
    <glyph glyph-name="a" unicode="a" horiz-adv-x="475" 
d="M94 255q27 17 61 25.5t71 8.5q52 0 99 -15q-3 31 -13 55q-13 31 -39 45q-10 5 -21.5 7.5t-26.5 2.5h-11q-14 -1 -28 -4.5t-28 -8.5t-28 -8.5t-27 -3.5q-14 0 -27 6q-12 7 -21 23l-2 4l2 3q30 32 70.5 51.5t88.5 22.5q5 1 8.5 1h8.5q46 0 84 -16.5t66 -45.5
q57 -62 59 -163v-8q0 -104 -53 -169q-26 -32 -62.5 -52t-81.5 -25q-6 -1 -12 -1h-13q-21 0 -44 3.5t-45 13.5q-23 9 -42 23.5t-32 37.5q-19 29 -20 71v6q0 39 16 65q14 26 43 45zM301 207q-13 2 -29.5 4t-33.5 2q-14 0 -27 -1.5t-24 -5.5q-25 -8 -38 -25q-5 -6 -8 -13.5
t-4 -16.5q-1 -3 -1 -9q0 -10 3 -21.5t12 -21.5q8 -10 23.5 -17t41.5 -7q8 0 12 1q28 1 49 16q10 6 17 14.5t12 18.5q11 19 15 39t4 37q-1 0 -1.5 0.5t-1.5 0.5q-4 1 -9 2t-12 3z" />
    <glyph glyph-name="b" unicode="b" horiz-adv-x="522" 
d="M162 446q44 23 101 23q47 0 87.5 -19t70.5 -51q31 -33 48.5 -76t17.5 -94q0 -49 -16 -92.5t-45 -76.5q-29 -32 -70.5 -51t-92.5 -19q-47 0 -87.5 19t-70.5 51t-47.5 75.5t-17.5 93.5v355q0 60 32.5 85.5t94.5 25.5q-1 -6 -2 -18q-1 -11 -1.5 -30t-0.5 -49v-31.5
t-0.5 -47.5t-0.5 -46v-27zM263 76q13 0 30.5 6t33.5 22.5t27 47t11 78.5t-11 78.5t-27 47t-33.5 22.5t-30.5 6t-30.5 -6t-33.5 -22.5t-27 -47t-11 -78.5t11 -78.5t27 -47t33.5 -22.5t30.5 -6z" />
    <glyph glyph-name="c" unicode="c" horiz-adv-x="468" 
d="M258 384q-13 0 -30.5 -6t-33.5 -22.5t-27 -47t-11 -78.5t11 -78.5t27 -47t33.5 -22.5t30.5 -6q21 0 40 4t34 9q15 6 28.5 10.5t26.5 4.5t26 -7q11 -7 23 -23l2 -4l-3 -3q-33 -36 -78.5 -56.5t-97.5 -20.5q-47 0 -87.5 19t-71.5 51q-30 32 -47.5 75.5t-17.5 93.5t16 93.5
t45 76.5q29 32 70 51t92 19q53 0 98.5 -20.5t78.5 -56.5l3 -3l-3 -4q-11 -18 -23 -23q-13 -8 -25 -7q-13 0 -26.5 4.5l-28.5 9.5q-15 6 -34 10.5t-40 4.5z" />
    <glyph glyph-name="d" unicode="d" horiz-adv-x="527" 
d="M482 229q0 -49 -16 -92.5t-45 -76.5q-29 -32 -70.5 -51t-92.5 -19q-46 0 -86.5 19t-71.5 51q-30 32 -47.5 75.5t-17.5 93.5t15.5 93.5t44.5 76.5q29 32 70.5 51t92.5 19q56 0 102 -26l-1 141q0 60 33 85.5t95 25.5q-1 -6 -2 -18q-1 -11 -1.5 -30t-0.5 -49zM258 76
q13 0 30.5 6t33.5 22.5t27 47t11 78.5t-11 78.5t-27 47t-33.5 22.5t-30.5 6t-30.5 -6t-33.5 -22.5t-27 -47t-11 -78.5t11 -78.5t27 -47t33.5 -22.5t30.5 -6z" />
    <glyph glyph-name="e" unicode="e" horiz-adv-x="485" 
d="M412 97q12 -7 23 -24l3 -3l-3 -3q-33 -36 -78.5 -56.5t-98.5 -20.5q-46 0 -86.5 18.5t-71.5 51.5q-30 32 -47.5 75.5t-17.5 93.5t15.5 93.5t44.5 76.5q29 32 70.5 51t92.5 19q28 0 61.5 -8.5t62.5 -27t48 -48.5t19 -72q0 -41 -21 -66.5t-50 -40t-61.5 -20t-56.5 -5.5
q-37 0 -64.5 4.5t-37.5 6.5q4 -36 16 -58.5t27 -35.5t30 -17.5t27 -4.5q21 0 40 4t34 9t28.5 10t26.5 5q14 0 25 -7zM258 384q-11 -1 -26 -5.5t-29.5 -16.5t-26.5 -34t-17 -56q16 -5 45.5 -9.5t59 -1.5t52 17t24.5 47q2 25 -19.5 43t-62.5 16z" />
    <glyph glyph-name="f" unicode="f" horiz-adv-x="328" 
d="M168 97q0 -30 0.5 -49t1.5 -30q1 -12 2 -18q-62 0 -94.5 26t-32.5 85l1 355q0 50 14.5 93t43.5 76q28 33 68 51.5t91 18.5q30 0 51 -10q23 -9 36 -30q8 -16 8 -32q0 -11 -3 -21l-2 -6l-5 2q-14 5 -32.5 8.5t-41.5 3.5q-8 0 -20 -2t-26 -9t-26.5 -19.5t-21.5 -33.5
q-6 -14 -9.5 -33t-3.5 -43v-11h135q0 -45 -25 -72t-71 -27h-39z" />
    <glyph glyph-name="g" unicode="g" horiz-adv-x="480" 
d="M149 12q45 14 97 19.5t96.5 -5.5t73.5 -42t29 -89q0 -43 -19 -75q-17 -29 -47 -50q-29 -19 -61 -27t-59 -8h-9q-46 2 -84 20t-67 49q-28 32 -44.5 74.5t-18.5 96.5q-1 4 -1 8v8q0 57 20 103t56 76q-32 24 -50.5 58.5t-18.5 75.5q0 37 16 69t44 55q28 24 65 37.5t79 13.5
q47 0 84.5 -13.5t63.5 -37.5q56 -48 56 -124q0 -35 -15.5 -67t-42.5 -55q-26 -23 -60.5 -36.5t-73.5 -15.5v-1h-6q-33 0 -53 -11q-20 -10 -31 -29q-11 -16 -15 -40t-4 -37zM246 394q-9 0 -22 -3.5t-24.5 -13.5t-19.5 -27.5t-8 -45.5t8 -45.5t19.5 -27t24.5 -13t22 -3.5
q10 0 23 3.5t24.5 13t19.5 27t8 45.5t-8 45.5t-19.5 27.5t-24.5 13.5t-23 3.5zM330 -155q10 10 13 21.5t3 22.5q0 10 -1 13q-3 14 -11 26q-7 9 -20 16q-13 6 -28 8.5t-31 2.5t-32 -2t-30 -4.5t-24.5 -5.5t-15.5 -4q2 -12 5 -26t9 -28q7 -16 17 -29.5t25 -21.5q21 -13 50 -13
t45.5 7t25.5 17z" />
    <glyph glyph-name="h" unicode="h" horiz-adv-x="519" 
d="M475 97q0 -30 0.5 -49t1.5 -30q1 -12 2 -18q-62 0 -95 26t-33 85l-1 141q0 42 -8.5 67.5t-22 40t-30 19.5t-33.5 5t-33.5 -5t-30 -19.5t-21.5 -40t-8 -67.5v-155q0 -30 0.5 -49t1.5 -30q1 -12 2 -18q-62 0 -94.5 26t-32.5 85l1 473q0 60 31 85.5t93 25.5q-1 -6 -2 -18
q-1 -11 -1.5 -30t-0.5 -49v-143q23 8 47.5 11t47.5 3q39 0 78 -8.5t70.5 -32.5t51 -66.5t19.5 -109.5v-155z" />
    <glyph glyph-name="i" unicode="i" horiz-adv-x="253" 
d="M164 606q-21 -35 -58 -35q-16 0 -30 7q-15 9 -23 23.5t-8 31.5q0 19 9 34q9 17 25 26.5t33 9.5q15 0 29 -8q16 -8 24 -23t8 -32q0 -18 -9 -34zM242 90q-5 -7 -17 -11.5t-24 -2.5t-21 12.5t-9 34.5v239q0 30 0.5 48.5t1.5 29.5q1 12 2 19q-62 0 -94 -26t-32 -86l-1 -236
q0 -25 7.5 -48t23 -40t38.5 -26.5t54 -6.5q32 2 47 18.5t20 34.5q6 21 4 47z" />
    <glyph glyph-name="j" unicode="j" horiz-adv-x="238" 
d="M174 606q-21 -35 -58 -35q-16 0 -30 7q-31 19 -31 56q0 18 9 33q9 17 25 26.5t33 9.5q15 0 29 -8q16 -8 24 -23t8 -32q0 -18 -9 -34zM189 359q0 30 0.5 49t1.5 30q1 12 2 18q-62 0 -95 -27t-33 -86v-343q0 -24 -2 -43t-8 -33q-9 -22 -22 -34.5t-27 -19.5q-13 -7 -25 -9
t-20 -2q-23 0 -42.5 5t-33.5 10l-6 2l-1 -6q-3 -11 -3 -21q0 -18 8 -32q11 -20 35 -31q25 -10 51 -10q51 0 91.5 19t69.5 52q28 32 42.5 75.5t14.5 93.5z" />
    <glyph glyph-name="k" unicode="k" horiz-adv-x="494" 
d="M489 33q-9 -9 -20 -16q-9 -6 -21 -10.5t-24 -4.5q-36 0 -62 24.5t-48 56.5l-26 39t-27 40t-23.5 35t-16.5 24q-16 -13 -29.5 -24.5t-23.5 -19.5v-80q0 -30 0.5 -49t1.5 -30q1 -12 2 -18q-62 0 -94.5 26t-32.5 85l3 473q0 60 31 85.5t93 25.5q-1 -6 -2 -18
q-1 -11 -1.5 -30t-0.5 -49v-275q15 11 31.5 24t32 26t30 24t24.5 19q40 32 66.5 41.5t46.5 11.5q24 2 38.5 -4t22.5 -14q10 -10 14 -22q-8 -6 -24.5 -19.5l-38.5 -31.5t-48 -39.5t-53 -43.5l111 -163z" />
    <glyph glyph-name="l" unicode="l" horiz-adv-x="275" 
d="M244 90q2 -26 -4 -47q-5 -18 -20 -34.5t-47 -18.5q-31 -3 -54 6.5t-38.5 26.5t-23 40t-7.5 48v487q-1 30 -1.5 48.5t-1.5 29.5q-1 12 -2 19q62 0 95 -26t33 -85v-461q0 -24 9 -34.5t21 -12.5t24 2.5t17 11.5z" />
    <glyph glyph-name="m" unicode="m" horiz-adv-x="831" 
d="M665 252q0 42 -8.5 67.5t-22.5 40t-31 19.5t-34 5t-33.5 -5t-30 -19.5t-22 -40t-8.5 -67.5v-155q0 -30 1 -49t2 -30q1 -12 2 -18q-62 0 -95 26t-33 85l1 141q0 42 -8.5 67.5t-22.5 40t-31 19.5t-34 5t-33.5 -5t-30 -19.5t-21.5 -40t-8 -67.5v-155q0 -30 0.5 -49t1.5 -30
q1 -12 2 -18q-62 0 -95 26t-33 85l1 141q0 67 19.5 109.5t50.5 66.5t69.5 32.5t76.5 8.5q42 0 83 -10t73 -38q32 28 73 38t83 10q38 0 77 -8.5t70.5 -32.5t51 -66.5t19.5 -109.5v-155q0 -30 0.5 -49t1.5 -30q1 -12 2 -18q-62 0 -94.5 26t-32.5 85z" />
    <glyph glyph-name="n" unicode="n" horiz-adv-x="519" 
d="M41 252q0 67 19.5 109.5t50 66.5t69 32.5t77.5 8.5q38 0 77 -8.5t70.5 -32.5t51 -66.5t19.5 -109.5l4 -252q-61 0 -94 26t-33 85l1 141q0 42 -8.5 67.5t-22.5 40t-31 19.5t-34 5t-33.5 -5t-30 -19.5t-22 -40t-8.5 -67.5v-155q1 -30 1.5 -49t1.5 -30q1 -12 2 -18
q-62 0 -95 26t-33 85z" />
    <glyph glyph-name="o" unicode="o" horiz-adv-x="517" 
d="M416 398q31 -32 48.5 -75.5t17.5 -93.5t-16 -93.5t-45 -75.5q-29 -33 -70.5 -52t-92.5 -19q-46 0 -86.5 19t-71.5 52q-30 32 -47.5 75.5t-17.5 93.5t15.5 93.5t44.5 75.5q29 33 70.5 52t92.5 19q47 0 87.5 -19t70.5 -52zM258 75q13 0 30.5 6t33.5 23t27 47t11 78
t-11 78.5t-27 47t-33.5 22.5t-30.5 6t-30.5 -6t-33.5 -22.5t-27 -47t-11 -78.5t11 -78t27 -47t33.5 -23t30.5 -6z" />
    <glyph glyph-name="p" unicode="p" horiz-adv-x="522" 
d="M40 229q0 50 17.5 93.5t47.5 75.5q30 33 70.5 52t87.5 19q51 0 92.5 -19t70.5 -52q29 -32 45 -75.5t16 -93.5t-17.5 -93.5t-48.5 -75.5q-30 -33 -70.5 -52t-87.5 -19q-57 0 -101 23l1 -152q0 -30 0.5 -49t1.5 -30q1 -12 2 -18q-62 0 -94.5 26t-32.5 86v354zM263 75
q13 0 30.5 6t33.5 22.5t27 47t11 78.5t-11 78t-27 46.5t-33.5 22.5t-30.5 6t-30.5 -6t-33.5 -22.5t-27 -46.5t-11 -78t11 -78.5t27 -47t33.5 -22.5t30.5 -6z" />
    <glyph glyph-name="q" unicode="q" horiz-adv-x="527" 
d="M483 -140q0 -30 0.5 -49t1.5 -30q1 -12 2 -18q-62 0 -94.5 26t-32.5 86l1 140q-23 -12 -49 -19t-53 -7q-51 0 -92.5 19t-70.5 52q-29 32 -45 75.5t-16 93.5t17.5 93.5t47.5 75.5q31 33 71.5 52t87.5 19q51 0 92 -19t70 -52q29 -32 45 -75.5t16 -93.5zM259 75q13 0 30.5 6
t33.5 22.5t27 47t11 78.5t-11 78t-27 46.5t-33.5 22.5t-30.5 6t-31 -6t-34 -22.5t-27 -46.5t-11 -78t11 -78.5t27 -47t34 -22.5t31 -6z" />
    <glyph glyph-name="r" unicode="r" horiz-adv-x="319" 
d="M40 241q0 67 19.5 109.5t50.5 66.5t69.5 32.5t76.5 8.5h49q5 -21 2 -39q-2 -15 -13.5 -29t-37.5 -17q-17 -2 -33.5 -7.5t-29.5 -19t-21.5 -38.5t-8.5 -67v-145q0 -30 0.5 -48.5t1.5 -29.5q1 -12 2 -18q-61 0 -94 25.5t-33 85.5v130z" />
    <glyph glyph-name="s" unicode="s" horiz-adv-x="427" 
d="M273 117q2 17 -9.5 28.5t-33 22t-50.5 22.5t-61 32q-24 14 -39.5 33.5t-22.5 42t-6 46t11 46.5q10 22 26 37t35.5 24.5t39.5 13.5t37 4h12q53 -3 97 -26t75 -61l3 -3l-3 -4q-10 -14 -22 -21q-11 -7 -25 -7t-27 5.5t-28 11.5q-19 8 -35.5 13.5t-33.5 5.5q-22 0 -33 -9.5
t-13 -22.5q-2 -19 12 -31.5t41 -23.5q31 -13 66 -28.5t62 -38t41 -54t3 -76.5q-5 -18 -17 -37.5t-33.5 -35.5t-52 -26.5t-71.5 -10.5q-8 0 -13 1q-48 2 -94.5 25t-77.5 61l-3 3l3 4q5 8 11 13t11 9q12 6 24 6q14 0 27 -5.5t28 -11.5q14 -7 31.5 -12t38.5 -7q36 0 51.5 14
t17.5 28z" />
    <glyph glyph-name="t" unicode="t" horiz-adv-x="328" 
d="M315 88q0 -3 1 -7q2 -8 2 -15q0 -18 -8 -32.5t-22 -24.5q-28 -20 -68 -20q-33 0 -65 15t-58 45t-41.5 74.5t-15.5 104.5l1 289q0 60 32 86t93 26q-1 -7 -2 -19q-1 -11 -1.5 -29.5t-0.5 -48.5l1 -63h134q0 -45 -25 -72t-71 -27h-38l-1 -142q0 -42 7.5 -70.5t20.5 -46.5
q27 -34 70 -34q18 0 36 5q10 3 19 6z" />
    <glyph glyph-name="u" unicode="u" horiz-adv-x="520" 
d="M477 206q0 -67 -20 -109t-51.5 -66t-70.5 -33t-77 -9t-77 9t-70.5 33t-51 66t-19.5 109l1 141q0 60 32.5 85.5t94.5 25.5q-1 -6 -2 -18q-1 -11 -1.5 -30t-0.5 -49l1 -155q0 -42 8 -67.5t21.5 -39.5t30 -19t33.5 -5t33.5 5t30 19t21.5 39.5t8 67.5l1 141q0 60 33 85.5
t95 25.5q-1 -6 -2 -18q-1 -11 -1.5 -30t-0.5 -49z" />
    <glyph glyph-name="v" unicode="v" horiz-adv-x="513" 
d="M336 40q-18 -33 -42 -45t-45 -14q-25 -2 -50 8q-8 18 -21.5 50.5t-30 72.5t-35 84t-35 84.5t-30 73.5t-20.5 51l-8 18t-7 17q-4 9 -7 18q30 7 57 5q23 -2 46.5 -13.5t37.5 -43.5q4 -11 11.5 -29.5t16 -40.5t18 -46t18.5 -48q21 -55 46 -119q24 64 46 119q9 24 19 48
t18.5 46t15.5 40.5t12 29.5q13 32 37 43.5t47 13.5q27 2 57 -5q-4 -8 -8 -17q-3 -8 -7 -17.5t-7 -18.5q-7 -19 -19 -49.5t-25.5 -66t-29 -73t-29.5 -72t-26.5 -62t-20.5 -42.5z" />
    <glyph glyph-name="w" unicode="w" horiz-adv-x="811" 
d="M666 406q13 32 36.5 43.5t46.5 13.5q27 2 57 -5q-39 -99 -72 -183q-14 -36 -29 -72.5t-28.5 -69t-25 -57.5t-18.5 -38q-17 -32 -41 -43.5t-45 -13.5q-26 -2 -51 6q-19 60 -37 115q-15 48 -30 98t-22 84l-16 -72t-17 -68t-18.5 -59t-19.5 -45q-16 -29 -39 -41t-45 -14
q-26 -3 -53 4q-7 18 -21 50.5t-30.5 72.5t-34.5 84t-34.5 84.5t-30 73.5t-20.5 51q-10 20 -16 35q-4 9 -7 18q30 7 57 5q23 -2 46.5 -13.5t37.5 -43.5q4 -11 11.5 -29.5t16 -40.5t18 -46t18.5 -48q22 -55 47 -119q15 64 29 119q12 48 25 94.5t22 69.5q13 32 35 43.5t44 13.5
q26 2 53 -5l90 -335q24 64 46 119q19 48 37 94.5t28 69.5z" />
    <glyph glyph-name="x" unicode="x" horiz-adv-x="506" 
d="M481 56q-15 -31 -38 -45q-10 -6 -22.5 -9t-27.5 0t-32.5 13t-38.5 30l-100 104l-147 -147q-30 19 -42 45q-5 11 -7 24.5t2.5 29t16 33t32.5 37.5q17 15 34.5 31t32.5 29l-61 63q-20 20 -29.5 38.5t-12.5 34.5t-0.5 30t8.5 25q13 26 43 47l143 -157l167 157q24 -22 34 -48
q8 -23 3.5 -52.5t-39.5 -62.5q-6 -5 -15.5 -14.5t-21.5 -20.5t-24.5 -22.5t-23.5 -21.5z" />
    <glyph glyph-name="y" unicode="y" horiz-adv-x="481" 
d="M335 406q13 32 37 43.5t47 13.5q27 2 57 -5q-64 -154 -115 -276q-22 -52 -43.5 -103t-38.5 -92t-28.5 -68t-13.5 -31q-14 -32 -37 -44t-46 -14q-27 -3 -57 6q12 28 26 61q12 29 27.5 66.5t33.5 79.5q-3 7 -12.5 29t-22 53t-28 67.5t-30.5 73.5q-36 87 -81 192q30 7 57 5
q23 -2 46.5 -13.5t37.5 -43.5q2 -5 10.5 -25.5t21 -51.5t28.5 -68.5t32 -75.5q18 42 34 80t28.5 68t20 49.5t9.5 23.5z" />
    <glyph glyph-name="z" unicode="z" horiz-adv-x="431" 
d="M303 100q46 0 71.5 -26.5t25.5 -71.5l-370 -1q-6 27 -3 56q2 25 14 55t42 61q9 9 25.5 26t36.5 36.5t40.5 40t38.5 37.5t31.5 29t17.5 14h-147q-46 0 -71 27t-25 72h370q8 -28 5 -57q-2 -25 -14.5 -55t-43.5 -59q-8 -7 -24.5 -23.5t-37 -36.5t-42 -42t-39 -40t-29 -30
l-11.5 -12h139v0z" />
    <glyph glyph-name="exclamdown" unicode="&#xa1;" horiz-adv-x="221" 
d="M172.003 388.018v-287.982q0 -59.9961 -32.498 -85.9941q-32.498 -25.999 -94.4941 -25.999q1 7 2 18.999q1 11 1.5 29.498q0.5 18.499 0.5 48.4971l2 287.982q0 59.9971 31.998 85.9951t92.9941 25.998q-1 -5.99902 -2 -17.998q-1 -11 -1 -29.999q0 -18.998 -1 -48.9971
zM56.0098 660.001q9 16.999 24.999 25.999q15.999 8.99902 32.998 8.99902q15.999 0 28.998 -6.99902q14.999 -9 23.498 -23.499q8.5 -14.499 7.5 -31.498q0 -18.999 -8 -33.998q-9.99902 -16.999 -25.998 -26.498t-32.998 -9.49902q-14.999 0 -28.998 7.99902
q-14.999 7.99902 -22.999 22.999q-7.99902 14.999 -7.99902 31.998q0 17.998 8.99902 33.9971z" />
    <glyph glyph-name="yen" unicode="&#xa5;" horiz-adv-x="569" 
d="M559 687q-3 -9 -7 -18q-3 -8 -7 -17l-8 -18q-9 -20 -25.5 -54.5t-36.5 -76t-41 -87t-40 -85.5h109q0 -45 -25 -72t-71 -27h-59q-1 -1 -1 -2t-1 -2v-30h157q0 -45 -25 -72t-71 -27h-61v-14q0 -21 0.5 -36t0.5 -25q0 -5 0.5 -8.5t0.5 -5.5v-5v-5q-58 0 -90.5 23t-36.5 76
h-155q0 45 25 72t71 27h59v34h-155q0 45 25 72t71 27h13q-19 40 -40 84.5t-41 86.5t-36.5 77t-25.5 55q-5 9 -8.5 18t-6.5 17q-4 9 -7 18q28 7 54 4q23 -2 46.5 -14t39.5 -42q6 -11 14.5 -29.5t19 -40.5t22.5 -46t23 -48q26 -55 55 -119l8 17t20.5 43t28 59t30 64t27.5 58
t21 42q15 30 38.5 42t46.5 14q26 3 55 -4z" />
    <glyph glyph-name="guillemotleft" unicode="&#xab;" horiz-adv-x="604" 
d="M501 292l-60 -63q14 -13 32 -29t34 -31q21 -20 33 -37.5t16.5 -33t2.5 -29t-7 -24.5q-12 -26 -42 -45l-234 233l216 234q30 -21 43 -47q6 -11 8.5 -25t-0.5 -30t-13 -34.5t-29 -38.5zM270 292l-60 -63q14 -13 31.5 -29t34.5 -31q21 -20 32.5 -37.5t15.5 -33t2.5 -29
t-6.5 -24.5q-12 -26 -41 -45l-234 233l216 234q30 -21 43 -47q6 -11 8.5 -25t-0.5 -30t-13 -34.5t-29 -38.5z" />
    <glyph glyph-name="guillemotright" unicode="&#xbb;" horiz-adv-x="605" 
d="M104 292q-20 20 -30 38.5t-13 34.5t-0.5 30t8.5 25q13 26 44 47l215 -234l-233 -233q-30 19 -42 45q-5 11 -7 24.5t2.5 29t16 33t32.5 37.5q17 15 35 31t32 29zM335 292q-20 20 -29.5 38.5t-12.5 34.5t-0.5 30t8.5 25q13 26 43 47l216 -234l-234 -233q-30 19 -41 45
q-5 11 -7 24.5t2.5 29t16 33t32.5 37.5q17 15 34.5 31t31.5 29z" />
    <glyph glyph-name="questiondown" unicode="&#xbf;" horiz-adv-x="585" 
d="M265.021 667.001q20.999 34.998 57.9961 34.998q15.999 0 29.998 -6.99902q14.999 -9 22.999 -23.499q7.99902 -14.499 7.99902 -31.498t-8.99902 -33.998t-24.998 -26.498t-32.998 -9.49902q-14.999 0 -28.999 7.99902q-15.999 7.99902 -23.998 22.999
q-8 14.999 -8 31.998q0 17.998 9 33.9971zM61.0332 178.031q4.99902 34.998 18.998 57.4961q14 22.499 32.998 37.998q18.999 15.499 41.498 28.998q22.498 13.499 44.9971 30.998t42.4971 42.498q19.999 24.998 33.998 63.9961q10 28.998 24.499 40.9971t28.498 13.999
q15.999 4 32.998 -3q20.999 -64.9961 15.999 -109.493t-24.999 -74.9951q-19.998 -30.498 -48.4971 -50.9971q-28.498 -20.499 -54.9961 -37.498t-45.4971 -34.9971q-18.999 -17.999 -18.999 -42.998q0 -14.999 6.49902 -27.498q6.5 -12.499 21.499 -21.499
q14.999 -8.99902 39.998 -13.999q24.998 -4.99902 62.9961 -4.99902q27.998 0 55.9961 5.49902q27.998 5.5 51.4971 11.999q23.499 6.5 38.998 13q15.499 6.49902 19.498 7.49902q8 3 14.499 5q6.5 2 13.5 2q10.999 0 20.998 -7q8 -5 19.999 -19.999l3 -2.99902
q-23.999 -27.999 -57.9971 -49.9971q-28.998 -18.999 -73.4951 -34.498t-106.493 -15.499q-135.992 0 -201.488 52.4971q-65.4961 52.4961 -53.4961 137.491z" />
    <glyph glyph-name="Agrave" unicode="&#xc0;" 
d="M486 771q-45 1 -90.5 12t-80 30t-52.5 46.5t-9 62.5q16 5 35 3q17 -2 38.5 -10.5t46.5 -31.5q20 -17 39 -36.5t36 -36.5q18 -19 37 -39zM667 56q-7 18 -24.5 62t-40.5 101t-48.5 120t-48.5 120t-40.5 100.5t-24.5 61.5q-11 28 -23.5 44.5t-24.5 25.5t-23.5 11.5
t-21.5 2.5t-21.5 -2.5t-23.5 -11.5t-24.5 -25.5t-23.5 -44.5q-7 -18 -25 -61.5t-40.5 -100.5t-48 -120t-48.5 -120t-40.5 -101t-24.5 -62q-5 -10 -8.5 -19t-6.5 -17q-4 -9 -7 -18q30 -8 57 -5q23 2 46 14t37 44q6 14 22 55t38 96h284q22 -55 38 -96t22 -55q13 -32 36.5 -44
t46.5 -14q27 -3 57 5q-3 9 -7 18q-3 8 -7 17t-8 19zM243 305q20 50 38 97.5t33 85.5q17 44 33 84q14 -40 32 -84q14 -38 33 -85.5l39 -97.5h-208z" />
    <glyph glyph-name="Aacute" unicode="&#xc1;" 
d="M210 771q18 20 36 39q16 17 35.5 36.5t39.5 36.5q25 23 46.5 31.5t38.5 10.5q19 2 36 -3q9 -35 -9 -62.5t-52.5 -46.5t-80 -30t-90.5 -12zM667 56q4 -10 8 -19t7 -17q4 -9 7 -18q-30 -8 -57 -5q-23 2 -46.5 14t-36.5 44q-6 14 -22 55t-38 96h-284q-22 -55 -38 -96
t-22 -55q-14 -32 -37 -44t-46 -14q-27 -3 -57 5q3 9 7 18q3 8 6.5 17t8.5 19q7 18 24.5 62t40.5 101t48.5 120t48 120t40.5 100.5t25 61.5q11 28 23.5 44.5t24.5 25.5t23.5 11.5t21.5 2.5t21.5 -2.5t23.5 -11.5t24.5 -25.5t23.5 -44.5q7 -18 24.5 -61.5t40.5 -100.5
t48.5 -120t48.5 -120t40.5 -101t24.5 -62zM451 305l-39 97.5t-33 85.5q-18 44 -32 84q-16 -40 -33 -84q-15 -38 -33 -85.5t-38 -97.5h208z" />
    <glyph glyph-name="Acircumflex" unicode="&#xc2;" 
d="M490 771q-94 3 -146 67q-52 -64 -146 -67q10 20 21 39q10 17 22.5 36.5t28.5 36.5q15 17 28.5 26t25.5 13q1 0 6.5 1.5t13.5 1.5q9 0 14 -1.5t7 -1.5q11 -4 24.5 -13t28.5 -26t28 -36.5t23 -36.5q11 -19 21 -39zM667 56q4 -10 8 -19t7 -17q4 -9 7 -18q-30 -8 -57 -5
q-23 2 -46.5 14t-36.5 44q-6 14 -22 55t-38 96h-284q-22 -55 -38 -96t-22 -55q-14 -32 -37 -44t-46 -14q-27 -3 -57 5q3 9 7 18q3 8 6.5 17t8.5 19q7 18 24.5 62t40.5 101t48.5 120t48 120t40.5 100.5t25 61.5q11 28 23.5 44.5t24.5 25.5t23.5 11.5t21.5 2.5t21.5 -2.5
t23.5 -11.5t24.5 -25.5t23.5 -44.5q7 -18 24.5 -61.5t40.5 -100.5t48.5 -120t48.5 -120t40.5 -101t24.5 -62zM451 305l-39 97.5t-33 85.5q-18 44 -32 84q-16 -40 -33 -84q-15 -38 -33 -85.5t-38 -97.5h208z" />
    <glyph glyph-name="Atilde" unicode="&#xc3;" 
d="M178 777q5 21 16 44.5t30 39.5t48 20t71 -14q36 -15 61.5 -19t44 0t31.5 14t24 24q3 -35 -7 -62q-8 -23 -31.5 -42.5t-70.5 -19.5q-35 0 -59.5 9t-47.5 16.5t-48.5 7.5t-61.5 -18zM667 56q-7 18 -24.5 62t-40.5 101t-48.5 120t-48.5 120t-40.5 100.5t-24.5 61.5
q-11 28 -23.5 44.5t-24.5 25.5t-23.5 11.5t-21.5 2.5t-21.5 -2.5t-23.5 -11.5t-24.5 -25.5t-23.5 -44.5q-7 -18 -25 -61.5t-40.5 -100.5t-48 -120t-48.5 -120t-40.5 -101t-24.5 -62q-5 -10 -8.5 -19t-6.5 -17q-4 -9 -7 -18q30 -8 57 -5q23 2 46 14t37 44q6 14 22 55t38 96
h284q22 -55 38 -96t22 -55q13 -32 36.5 -44t46.5 -14q27 -3 57 5q-3 9 -7 18q-3 8 -7 17t-8 19zM243 305q20 50 38 97.5t33 85.5q17 44 33 84q14 -40 32 -84q14 -38 33 -85.5l39 -97.5h-208z" />
    <glyph glyph-name="Adieresis" unicode="&#xc4;" 
d="M308 841q-10 -17 -26 -26t-33 -9t-29 8q-15 8 -23 23t-8 32t9 34t25 26t33 9t29 -8q15 -8 23 -23t8 -32q0 -19 -8 -34zM491 841q-9 -17 -25 -26t-33 -9t-29 8q-16 8 -24 23t-8 32t9 34t25 26t33 9t29 -8q16 -8 24 -23t8 -32q0 -18 -9 -34zM667 56q-7 18 -24.5 62
t-40.5 101t-48.5 120t-48.5 120t-40.5 100.5t-24.5 61.5q-11 28 -23.5 44.5t-24.5 25.5t-23.5 11.5t-21.5 2.5t-21.5 -2.5t-23.5 -11.5t-24.5 -25.5t-23.5 -44.5q-7 -18 -25 -61.5t-40.5 -100.5t-48 -120t-48.5 -120t-40.5 -101t-24.5 -62q-5 -10 -8.5 -19t-6.5 -17
q-4 -9 -7 -18q30 -8 57 -5q23 2 46 14t37 44q6 14 22 55t38 96h284q22 -55 38 -96t22 -55q13 -32 36.5 -44t46.5 -14q27 -3 57 5q-3 9 -7 18q-3 8 -7 17t-8 19zM243 305q20 50 38 97.5t33 85.5q17 44 33 84q14 -40 32 -84q14 -38 33 -85.5l39 -97.5h-208z" />
    <glyph glyph-name="Aring" unicode="&#xc5;" 
d="M388 909q20 -11 31 -30.5t11 -42.5q0 -24 -12 -45q-12 -23 -33 -35t-44 -12q-22 0 -39 10q-20 11 -31 30.5t-11 42.5q0 24 12 45q13 23 33.5 35t43.5 12q22 0 39 -10zM375 815q4 8 4 18q1 9 -3.5 17t-12.5 13q-7 4 -16 4q-21 0 -32 -19q-4 -8 -4 -18q0 -9 4.5 -17
t12.5 -13q7 -4 15 -4q21 0 32 19zM667 56q4 -10 8 -19t7 -17q4 -9 7 -18q-30 -8 -57 -5q-23 2 -46.5 14t-36.5 44q-6 14 -22 55t-38 96h-284q-22 -55 -38 -96t-22 -55q-14 -32 -37 -44t-46 -14q-27 -3 -57 5q3 9 7 18q3 8 6.5 17t8.5 19q7 18 24.5 62t40.5 101t48.5 120
t48 120t40.5 100.5t25 61.5q11 28 23.5 44.5t24.5 25.5t23.5 11.5t21.5 2.5t21.5 -2.5t23.5 -11.5t24.5 -25.5t23.5 -44.5q7 -18 24.5 -61.5t40.5 -100.5t48.5 -120t48.5 -120t40.5 -101t24.5 -62zM451 305l-39 97.5t-33 85.5q-18 44 -32 84q-16 -40 -33 -84
q-15 -38 -33 -85.5t-38 -97.5h208z" />
    <glyph glyph-name="Ccedilla" unicode="&#xc7;" horiz-adv-x="564" 
d="M535 95q11 -8 17 -16q4 -5 7 -11q-5 -9 -19 -22.5t-37.5 -26t-55.5 -22t-74 -9.5q-2 -8 -2.5 -15t-0.5 -12v-10q25 1 49 -4.5t43 -17t31 -29t13 -40.5q1 -25 -12.5 -46t-38 -34t-58 -16t-71.5 9q-23 7 -33.5 17.5t-15.5 21.5q-5 12 -4 25q37 -16 64.5 -19.5t45.5 2
t27 17.5t9 27q0 19 -11.5 29.5t-30 15.5t-41.5 5t-45 -2q-3 10 -4 22q-1 11 0 26.5t8 35.5q-54 12 -102 40t-84.5 72t-57.5 103.5t-21 134.5q0 88 29 155t76.5 112t109.5 67.5t128 22.5q42 0 74 -9.5t55.5 -22.5t37.5 -26.5t19 -21.5q-3 -6 -7 -11q-3 -5 -7.5 -9.5
t-9.5 -6.5q-11 -7 -25 -7q-15 0 -26.5 4.5t-26 9.5t-34.5 9.5t-50 4.5q-39 0 -76.5 -16t-67.5 -49t-48 -84.5t-18 -121.5q0 -71 18 -122t48 -84.5t67.5 -49.5t76.5 -16q30 0 50 4.5t34.5 9.5t26 9.5t26.5 4.5q14 0 25 -7z" />
    <glyph glyph-name="Egrave" unicode="&#xc8;" horiz-adv-x="524" 
d="M436 771q-45 1 -90.5 12t-80 30t-52.5 46.5t-9 62.5q16 5 35 3q17 -2 38.5 -10.5t46.5 -31.5q20 -17 39 -36.5t36 -36.5q18 -19 37 -39zM513 104h-2q-8 -1 -43.5 -3t-100.5 -2q-55 0 -94.5 11t-64 37t-35.5 70.5t-9 111.5h151q46 0 71 27t25 72h-246l-3 122q0 11 1 19.5
t5 13.5q3 5 9 8q3 2 7 3t10 2h170q23 0 45.5 2t42.5 12q20 12 31 31q12 19 12 53v6h-6h-2q-8 -1 -36 -3t-92 -2h-88q-25 0 -48 -1t-44 -3q-16 -2 -30 -5.5t-27 -8.5q-20 -8 -35 -20t-26 -32q-21 -39 -21 -107v-189q0 -99 20.5 -164.5t63 -103.5t108 -51.5t156.5 -9.5
q20 1 44.5 2.5t43.5 12.5q21 10 31 30q12 19 12 53v7z" />
    <glyph glyph-name="Eacute" unicode="&#xc9;" horiz-adv-x="524" 
d="M191 771q18 20 36 39q16 17 35.5 36.5t39.5 36.5q25 23 46.5 31.5t38.5 10.5q19 2 36 -3q9 -35 -9 -62.5t-52.5 -46.5t-80 -30t-90.5 -12zM519 105v-7q0 -34 -12 -53q-10 -20 -31 -30q-19 -11 -43.5 -12.5t-44.5 -2.5q-91 -4 -156.5 9.5t-108 51.5t-63 103.5t-20.5 164.5
v189q0 68 21 107q11 20 26 32t35 20q13 5 27 8.5t30 5.5q21 2 44 3t48 1h88q64 0 92 2t36 3h2h6v-6q0 -34 -12 -53q-11 -19 -31 -31q-20 -10 -42.5 -12t-45.5 -2h-170q-6 -1 -10 -2t-7 -3q-6 -3 -9 -8q-4 -5 -5 -13.5t-1 -19.5l3 -122h246q0 -45 -25 -72t-71 -27h-151
q-2 -67 9 -111.5t35.5 -70.5t64 -37t94.5 -11q65 0 100.5 2t43.5 3h2z" />
    <glyph glyph-name="Ecircumflex" unicode="&#xca;" horiz-adv-x="524" 
d="M460 771q-94 3 -146 67q-52 -64 -146 -67q10 20 21 39q10 17 22.5 36.5t28.5 36.5q15 17 28.5 26t25.5 13q1 0 6.5 1.5t13.5 1.5q9 0 14 -1.5t7 -1.5q11 -4 24.5 -13t28.5 -26t28 -36.5t23 -36.5q11 -19 21 -39zM519 105v-7q0 -34 -12 -53q-10 -20 -31 -30
q-19 -11 -43.5 -12.5t-44.5 -2.5q-91 -4 -156.5 9.5t-108 51.5t-63 103.5t-20.5 164.5v189q0 68 21 107q11 20 26 32t35 20q13 5 27 8.5t30 5.5q21 2 44 3t48 1h88q64 0 92 2t36 3h2h6v-6q0 -34 -12 -53q-11 -19 -31 -31q-20 -10 -42.5 -12t-45.5 -2h-170q-6 -1 -10 -2
t-7 -3q-6 -3 -9 -8q-4 -5 -5 -13.5t-1 -19.5l3 -122h246q0 -45 -25 -72t-71 -27h-151q-2 -67 9 -111.5t35.5 -70.5t64 -37t94.5 -11q65 0 100.5 2t43.5 3h2z" />
    <glyph glyph-name="Edieresis" unicode="&#xcb;" horiz-adv-x="524" 
d="M264 841q-10 -17 -26 -26t-33 -9t-29 8q-15 8 -23 23t-8 32t9 34t25 26t33 9t29 -8q15 -8 23 -23t8 -32q0 -19 -8 -34zM447 841q-9 -17 -25 -26t-33 -9t-29 8q-16 8 -24 23t-8 32t9 34t25 26t33 9t29 -8q16 -8 24 -23t8 -32q0 -18 -9 -34zM513 104h-2q-8 -1 -43.5 -3
t-100.5 -2q-55 0 -94.5 11t-64 37t-35.5 70.5t-9 111.5h151q46 0 71 27t25 72h-246l-3 122q0 11 1 19.5t5 13.5q3 5 9 8q3 2 7 3t10 2h170q23 0 45.5 2t42.5 12q20 12 31 31q12 19 12 53v6h-6h-2q-8 -1 -36 -3t-92 -2h-88q-25 0 -48 -1t-44 -3q-16 -2 -30 -5.5t-27 -8.5
q-20 -8 -35 -20t-26 -32q-21 -39 -21 -107v-189q0 -99 20.5 -164.5t63 -103.5t108 -51.5t156.5 -9.5q20 1 44.5 2.5t43.5 12.5q21 10 31 30q12 19 12 53v7z" />
    <glyph glyph-name="Igrave" unicode="&#xcc;" horiz-adv-x="215" 
d="M266 771q-45 1 -90.5 12t-80 30t-52.5 46.5t-9 62.5q16 5 35 3q17 -2 38.5 -10.5t46.5 -31.5q20 -17 39 -36.5t36 -36.5q18 -19 37 -39zM48 97v487q0 60 32.5 85.5t94.5 25.5q-1 -6 -2 -18q-1 -11 -1.5 -29.5t-0.5 -48.5l-2 -487q0 -60 -32 -86t-93 -26q1 6 2 18
q1 11 1 30t1 49z" />
    <glyph glyph-name="Iacute" unicode="&#xcd;" horiz-adv-x="215" 
d="M-8 771q18 20 36 39q16 17 35.5 36.5t39.5 36.5q25 23 46.5 31.5t38.5 10.5q19 2 36 -3q9 -35 -9 -62.5t-52.5 -46.5t-80 -30t-90.5 -12zM48 97v487q0 60 32.5 85.5t94.5 25.5q-1 -6 -2 -18q-1 -11 -1.5 -29.5t-0.5 -48.5l-2 -487q0 -60 -32 -86t-93 -26q1 6 2 18
q1 11 1 30t1 49z" />
    <glyph glyph-name="Icircumflex" unicode="&#xce;" horiz-adv-x="215" 
d="M270 771q-94 3 -146 67q-52 -64 -146 -67q10 20 21 39q10 17 22.5 36.5t28.5 36.5q15 17 28.5 26t25.5 13q1 0 6.5 1.5t13.5 1.5q9 0 14 -1.5t7 -1.5q11 -4 24.5 -13t28.5 -26t28 -36.5t23 -36.5q11 -19 21 -39zM48 97v487q0 60 32.5 85.5t94.5 25.5q-1 -6 -2 -18
q-1 -11 -1.5 -29.5t-0.5 -48.5l-2 -487q0 -60 -32 -86t-93 -26q1 6 2 18q1 11 1 30t1 49z" />
    <glyph glyph-name="Idieresis" unicode="&#xcf;" horiz-adv-x="215" 
d="M73 841q-10 -17 -26 -26t-33 -9t-29 8q-15 8 -23 23t-8 32t9 34t25 26t33 9t29 -8q15 -8 23 -23t8 -32q0 -19 -8 -34zM256 841q-9 -17 -25 -26t-33 -9t-29 8q-16 8 -24 23t-8 32t9 34t25 26t33 9t29 -8q16 -8 24 -23t8 -32q0 -18 -9 -34zM48 97v487q0 60 32.5 85.5
t94.5 25.5q-1 -6 -2 -18q-1 -11 -1.5 -29.5t-0.5 -48.5l-2 -487q0 -60 -32 -86t-93 -26q1 6 2 18q1 11 1 30t1 49z" />
    <glyph glyph-name="Ntilde" unicode="&#xd1;" horiz-adv-x="662" 
d="M186 777q5 21 16 44.5t30 39.5t48 20t71 -14q36 -15 61.5 -19t44 0t31.5 14t24 24q3 -35 -7 -62q-8 -23 -31.5 -42.5t-70.5 -19.5q-35 0 -59.5 9t-47.5 16.5t-48.5 7.5t-61.5 -18zM613 598q0 30 0.5 48.5t1.5 29.5q1 12 2 19q-62 0 -95 -26t-33 -85l3 -435
q-43 99 -80 183q-16 36 -32 71t-29.5 65.5t-24 53t-15.5 32.5q-37 72 -85 106.5t-127 34.5q-11 0 -20.5 -1t-17.5 -3q-9 -2 -16 -4v-576q0 -60 33 -85.5t95 -25.5q-1 6 -2 18q-1 11 -1.5 30t-1.5 49l-4 481q46 -103 86 -192q17 -38 34.5 -77t33 -73.5t28.5 -62t21 -42.5
q33 -67 77.5 -99t115.5 -32q11 0 20.5 1t17.5 3q9 2 16 4z" />
    <glyph glyph-name="Ograve" unicode="&#xd2;" horiz-adv-x="744" 
d="M486 771q-45 1 -90.5 12t-80 30t-52.5 46.5t-9 62.5q16 5 35 3q17 -2 38.5 -10.5t46.5 -31.5q20 -17 39 -36.5t36 -36.5q18 -19 37 -39zM372 706q-66 0 -127.5 -23t-109.5 -68t-76.5 -111.5t-28.5 -154.5t28.5 -155t76.5 -112.5t109.5 -68.5t127.5 -23t127.5 23
t109.5 68.5t76.5 112.5t28.5 155t-28.5 154.5t-76.5 111.5t-109.5 68t-127.5 23zM372 76q-39 0 -76.5 16t-67.5 50t-48 85t-18 122q0 70 18 121t48 84t67.5 49t76.5 16t76.5 -16t67.5 -49t48 -84t18 -121q0 -71 -18 -122t-48 -85t-67.5 -50t-76.5 -16z" />
    <glyph glyph-name="Oacute" unicode="&#xd3;" horiz-adv-x="744" 
d="M231 771q18 20 36 39q16 17 35.5 36.5t39.5 36.5q25 23 46.5 31.5t38.5 10.5q19 2 36 -3q9 -35 -9 -62.5t-52.5 -46.5t-80 -30t-90.5 -12zM372 706q66 0 127.5 -23t109.5 -68t76.5 -111.5t28.5 -154.5t-28.5 -155t-76.5 -112.5t-109.5 -68.5t-127.5 -23t-127.5 23
t-109.5 68.5t-76.5 112.5t-28.5 155t28.5 154.5t76.5 111.5t109.5 68t127.5 23zM372 76q39 0 76.5 16t67.5 50t48 85t18 122q0 70 -18 121t-48 84t-67.5 49t-76.5 16t-76.5 -16t-67.5 -49t-48 -84t-18 -121q0 -71 18 -122t48 -85t67.5 -50t76.5 -16z" />
    <glyph glyph-name="Ocircumflex" unicode="&#xd4;" horiz-adv-x="744" 
d="M520 771q-94 3 -146 67q-52 -64 -146 -67q10 20 21 39q10 17 22.5 36.5t28.5 36.5q15 17 28.5 26t25.5 13q1 0 6.5 1.5t13.5 1.5q9 0 14 -1.5t7 -1.5q11 -4 24.5 -13t28.5 -26t28 -36.5t23 -36.5q11 -19 21 -39zM372 706q66 0 127.5 -23t109.5 -68t76.5 -111.5
t28.5 -154.5t-28.5 -155t-76.5 -112.5t-109.5 -68.5t-127.5 -23t-127.5 23t-109.5 68.5t-76.5 112.5t-28.5 155t28.5 154.5t76.5 111.5t109.5 68t127.5 23zM372 76q39 0 76.5 16t67.5 50t48 85t18 122q0 70 -18 121t-48 84t-67.5 49t-76.5 16t-76.5 -16t-67.5 -49t-48 -84
t-18 -121q0 -71 18 -122t48 -85t67.5 -50t76.5 -16z" />
    <glyph glyph-name="Otilde" unicode="&#xd5;" horiz-adv-x="744" 
d="M208 777q5 21 16 44.5t30 39.5t48 20t71 -14q36 -15 61.5 -19t44 0t31.5 14t24 24q3 -35 -7 -62q-8 -23 -31.5 -42.5t-70.5 -19.5q-35 0 -59.5 9t-47.5 16.5t-48.5 7.5t-61.5 -18zM372 706q-66 0 -127.5 -23t-109.5 -68t-76.5 -111.5t-28.5 -154.5t28.5 -155t76.5 -112.5
t109.5 -68.5t127.5 -23t127.5 23t109.5 68.5t76.5 112.5t28.5 155t-28.5 154.5t-76.5 111.5t-109.5 68t-127.5 23zM372 76q-39 0 -76.5 16t-67.5 50t-48 85t-18 122q0 70 18 121t48 84t67.5 49t76.5 16t76.5 -16t67.5 -49t48 -84t18 -121q0 -71 -18 -122t-48 -85t-67.5 -50
t-76.5 -16z" />
    <glyph glyph-name="Odieresis" unicode="&#xd6;" horiz-adv-x="744" 
d="M334 841q-10 -17 -26 -26t-33 -9t-29 8q-15 8 -23 23t-8 32t9 34t25 26t33 9t29 -8q15 -8 23 -23t8 -32q0 -19 -8 -34zM517 841q-9 -17 -25 -26t-33 -9t-29 8q-16 8 -24 23t-8 32t9 34t25 26t33 9t29 -8q16 -8 24 -23t8 -32q0 -18 -9 -34zM372 706q-66 0 -127.5 -23
t-109.5 -68t-76.5 -111.5t-28.5 -154.5t28.5 -155t76.5 -112.5t109.5 -68.5t127.5 -23t127.5 23t109.5 68.5t76.5 112.5t28.5 155t-28.5 154.5t-76.5 111.5t-109.5 68t-127.5 23zM372 76q-39 0 -76.5 16t-67.5 50t-48 85t-18 122q0 70 18 121t48 84t67.5 49t76.5 16
t76.5 -16t67.5 -49t48 -84t18 -121q0 -71 -18 -122t-48 -85t-67.5 -50t-76.5 -16z" />
    <glyph glyph-name="Ugrave" unicode="&#xd9;" horiz-adv-x="655" 
d="M456 771q-45 1 -90.5 12t-80 30t-52.5 46.5t-9 62.5q16 5 35 3q17 -2 38.5 -10.5t46.5 -31.5q20 -17 39 -36.5t36 -36.5q18 -19 37 -39zM611 598q0 30 0.5 49t1.5 30q1 12 2 18q-62 0 -94 -25.5t-32 -85.5l-3 -265q1 -67 -9 -111.5t-31 -70.5t-51.5 -37t-69.5 -11
t-69.5 11t-51.5 37t-31 70.5t-8 111.5v279q0 30 0.5 49t1.5 30q1 12 2 18q-62 0 -94 -25.5t-32 -85.5l-3 -265q0 -89 20.5 -151t57.5 -102t89.5 -58t117.5 -18q64 0 117 18t90.5 58t58 102t20.5 151v279z" />
    <glyph glyph-name="Uacute" unicode="&#xda;" horiz-adv-x="655" 
d="M198 771q18 20 36 39q16 17 35.5 36.5t39.5 36.5q25 23 46.5 31.5t38.5 10.5q19 2 36 -3q9 -35 -9 -62.5t-52.5 -46.5t-80 -30t-90.5 -12zM611 319q0 -89 -20.5 -151t-58 -102t-90.5 -58t-117 -18q-65 0 -117.5 18t-89.5 58t-57.5 102t-20.5 151l3 265q0 60 32 85.5
t94 25.5q-1 -6 -2 -18q-1 -11 -1.5 -30t-0.5 -49v-279q-2 -67 8 -111.5t31 -70.5t51.5 -37t69.5 -11t69.5 11t51.5 37t31 70.5t9 111.5l3 265q0 60 32 85.5t94 25.5q-1 -6 -2 -18q-1 -11 -1.5 -30t-0.5 -49v-279z" />
    <glyph glyph-name="Ucircumflex" unicode="&#xdb;" horiz-adv-x="655" 
d="M486 771q-94 3 -146 67q-52 -64 -146 -67q10 20 21 39q10 17 22.5 36.5t28.5 36.5q15 17 28.5 26t25.5 13q1 0 6.5 1.5t13.5 1.5q9 0 14 -1.5t7 -1.5q11 -4 24.5 -13t28.5 -26t28 -36.5t23 -36.5q11 -19 21 -39zM611 319q0 -89 -20.5 -151t-58 -102t-90.5 -58t-117 -18
q-65 0 -117.5 18t-89.5 58t-57.5 102t-20.5 151l3 265q0 60 32 85.5t94 25.5q-1 -6 -2 -18q-1 -11 -1.5 -30t-0.5 -49v-279q-2 -67 8 -111.5t31 -70.5t51.5 -37t69.5 -11t69.5 11t51.5 37t31 70.5t9 111.5l3 265q0 60 32 85.5t94 25.5q-1 -6 -2 -18q-1 -11 -1.5 -30
t-0.5 -49v-279z" />
    <glyph glyph-name="Udieresis" unicode="&#xdc;" horiz-adv-x="655" 
d="M292 841q-10 -17 -26 -26t-33 -9t-29 8q-15 8 -23 23t-8 32t9 34t25 26t33 9t29 -8q15 -8 23 -23t8 -32q0 -19 -8 -34zM475 841q-9 -17 -25 -26t-33 -9t-29 8q-16 8 -24 23t-8 32t9 34t25 26t33 9t29 -8q16 -8 24 -23t8 -32q0 -18 -9 -34zM601 598q0 30 0.5 49t1.5 30
q1 12 2 18q-62 0 -94 -25.5t-32 -85.5l-3 -265q1 -67 -9 -111.5t-31 -70.5t-51.5 -37t-69.5 -11t-69.5 11t-51.5 37t-31 70.5t-8 111.5v279q0 30 0.5 49t1.5 30q1 12 2 18q-62 0 -94 -25.5t-32 -85.5l-3 -265q0 -89 20.5 -151t57.5 -102t89.5 -58t117.5 -18q64 0 117 18
t90.5 58t58 102t20.5 151v279z" />
    <glyph glyph-name="Yacute" unicode="&#xdd;" horiz-adv-x="569" 
d="M161 771q18 20 36 39q16 17 35.5 36.5t39.5 36.5q25 23 46.5 31.5t38.5 10.5q19 2 36 -3q9 -35 -9 -62.5t-52.5 -46.5t-80 -30t-90.5 -12zM345 86q1 -21 1.5 -36t0.5 -25v-14q0 -3 1 -5v-6q-62 0 -95 26t-33 86v122q-9 21 -24.5 53.5t-33.5 71t-37.5 79.5t-37 79
t-32.5 69t-23 49q-10 20 -16 35q-4 9 -6 18q28 7 54 4q23 -2 46.5 -14.5t39.5 -42.5q6 -11 14.5 -29.5t19 -40.5t22.5 -46t23 -48q26 -55 55 -118q29 63 55 118q11 24 22.5 48t22 46t19.5 40.5t15 29.5q16 30 39.5 42.5t46.5 14.5q26 3 55 -4q-3 -9 -7 -18q-6 -15 -16 -35
q-8 -18 -23 -49.5t-33 -69.5t-37.5 -80t-38 -81t-34.5 -72.5t-25 -53.5v-143z" />
    <glyph glyph-name="germandbls" unicode="&#xdf;" horiz-adv-x="623" 
d="M490 193q0 35 -18 61.5t-39 49t-39 43.5t-18 47q0 23 9.5 39.5t20.5 33t20.5 36.5t9.5 52q0 35 -42 49t-118 14h-33.5t-34.5 -4.5t-27 -14.5t-11 -30v-472q0 -30 0.5 -49t1.5 -30q1 -12 2 -18q-62 0 -95.5 25.5t-33.5 85.5l2 417q0 68 21 107q11 20 26 32t35 20
q13 5 27 8.5t30 5.5q10 1 23 2t26 1.5t24 0.5h17q11 0 34.5 -2t52.5 -7.5t60 -15.5t56.5 -26.5t42 -41t16.5 -57.5q0 -35 -8 -56.5t-17 -37t-17 -30.5t-8 -37q0 -20 15 -36t33.5 -37t34 -50.5t16.5 -77.5q1 -49 -13.5 -87t-39 -64t-57.5 -39.5t-70 -13.5q-56 0 -83 15
t-38 33q-12 21 -10 48l6 -1h2q4 0 15.5 -1t27 -2t33 -1.5t34.5 -0.5q51 0 73.5 32t22.5 82z" />
    <glyph glyph-name="agrave" unicode="&#xe0;" horiz-adv-x="475" 
d="M337 535q-45 1 -90.5 12t-80 30t-52.5 46.5t-9 62.5q17 5 36 3q17 -2 38.5 -10.5t46.5 -30.5q19 -18 39 -37.5t36 -36.5q18 -19 36 -39zM94 255q-29 -19 -43 -45q-16 -26 -16 -65v-6q1 -42 20 -71q13 -23 32 -37.5t42 -23.5q22 -10 45 -13.5t44 -3.5h13t12 1
q45 5 81.5 25t62.5 52q53 65 53 169v8q-2 101 -59 163q-28 29 -66 45.5t-84 16.5h-8.5t-8.5 -1q-48 -3 -88.5 -22.5t-70.5 -51.5l-2 -3l2 -4q9 -16 21 -23q13 -6 27 -6q13 0 27 3.5t28 8.5t28 8.5t28 4.5h11q15 0 26.5 -2.5t21.5 -7.5q26 -14 39 -45q10 -24 13 -55
q-47 15 -99 15q-37 0 -71 -8.5t-61 -25.5zM301 207q7 -2 12 -3t9 -2q1 0 1.5 -0.5t1.5 -0.5q0 -17 -4 -37t-15 -39q-5 -10 -12 -18.5t-17 -14.5q-21 -15 -49 -16q-4 -1 -12 -1q-26 0 -41.5 7t-23.5 17q-9 10 -12 21.5t-3 21.5q0 6 1 9q1 9 4 16.5t8 13.5q13 17 38 25
q11 4 24 5.5t27 1.5q17 0 33.5 -2t29.5 -4z" />
    <glyph glyph-name="aacute" unicode="&#xe1;" horiz-adv-x="475" 
d="M99 535q17 20 36 39q16 17 36 36.5t40 37.5q25 22 46.5 30.5t38.5 10.5q19 2 35 -3q9 -35 -9 -62.5t-52.5 -46.5t-80 -30t-90.5 -12zM94 255q27 17 61 25.5t71 8.5q52 0 99 -15q-3 31 -13 55q-13 31 -39 45q-10 5 -21.5 7.5t-26.5 2.5h-11q-14 -1 -28 -4.5t-28 -8.5
t-28 -8.5t-27 -3.5q-14 0 -27 6q-12 7 -21 23l-2 4l2 3q30 32 70.5 51.5t88.5 22.5q5 1 8.5 1h8.5q46 0 84 -16.5t66 -45.5q57 -62 59 -163v-8q0 -104 -53 -169q-26 -32 -62.5 -52t-81.5 -25q-6 -1 -12 -1h-13q-21 0 -44 3.5t-45 13.5q-23 9 -42 23.5t-32 37.5
q-19 29 -20 71v6q0 39 16 65q14 26 43 45zM301 207q-13 2 -29.5 4t-33.5 2q-14 0 -27 -1.5t-24 -5.5q-25 -8 -38 -25q-5 -6 -8 -13.5t-4 -16.5q-1 -3 -1 -9q0 -10 3 -21.5t12 -21.5q8 -10 23.5 -17t41.5 -7q8 0 12 1q28 1 49 16q10 6 17 14.5t12 18.5q11 19 15 39t4 37
q-1 0 -1.5 0.5t-1.5 0.5q-4 1 -9 2t-12 3z" />
    <glyph glyph-name="acircumflex" unicode="&#xe2;" horiz-adv-x="475" 
d="M377 536q-94 3 -146 66q-52 -63 -146 -66q10 20 21 39q10 17 22.5 36.5t28.5 36.5q15 17 28.5 26t25.5 12q1 1 6.5 2.5t13.5 1.5q9 0 14 -1.5t7 -2.5q11 -3 24.5 -12t28.5 -26t28 -36.5t23 -36.5q11 -19 21 -39zM94 255q27 17 61 25.5t71 8.5q52 0 99 -15q-3 31 -13 55
q-13 31 -39 45q-10 5 -21.5 7.5t-26.5 2.5h-11q-14 -1 -28 -4.5t-28 -8.5t-28 -8.5t-27 -3.5q-14 0 -27 6q-12 7 -21 23l-2 4l2 3q30 32 70.5 51.5t88.5 22.5q5 1 8.5 1h8.5q46 0 84 -16.5t66 -45.5q57 -62 59 -163v-8q0 -104 -53 -169q-26 -32 -62.5 -52t-81.5 -25
q-6 -1 -12 -1h-13q-21 0 -44 3.5t-45 13.5q-23 9 -42 23.5t-32 37.5q-19 29 -20 71v6q0 39 16 65q14 26 43 45zM301 207q-13 2 -29.5 4t-33.5 2q-14 0 -27 -1.5t-24 -5.5q-25 -8 -38 -25q-5 -6 -8 -13.5t-4 -16.5q-1 -3 -1 -9q0 -10 3 -21.5t12 -21.5q8 -10 23.5 -17
t41.5 -7q8 0 12 1q28 1 49 16q10 6 17 14.5t12 18.5q11 19 15 39t4 37q-1 0 -1.5 0.5t-1.5 0.5q-4 1 -9 2t-12 3z" />
    <glyph glyph-name="atilde" unicode="&#xe3;" horiz-adv-x="475" 
d="M76 541q5 21 16 44.5t30.5 40t48.5 20.5t71 -14q36 -16 61 -20t43.5 0t31.5 14t24 24q3 -35 -7 -62q-8 -23 -31.5 -42.5t-70.5 -19.5q-35 0 -59.5 9t-47.5 16.5t-48.5 7.5t-61.5 -18zM94 255q-29 -19 -43 -45q-16 -26 -16 -65v-6q1 -42 20 -71q13 -23 32 -37.5t42 -23.5
q22 -10 45 -13.5t44 -3.5h13t12 1q45 5 81.5 25t62.5 52q53 65 53 169v8q-2 101 -59 163q-28 29 -66 45.5t-84 16.5h-8.5t-8.5 -1q-48 -3 -88.5 -22.5t-70.5 -51.5l-2 -3l2 -4q9 -16 21 -23q13 -6 27 -6q13 0 27 3.5t28 8.5t28 8.5t28 4.5h11q15 0 26.5 -2.5t21.5 -7.5
q26 -14 39 -45q10 -24 13 -55q-47 15 -99 15q-37 0 -71 -8.5t-61 -25.5zM301 207q7 -2 12 -3t9 -2q1 0 1.5 -0.5t1.5 -0.5q0 -17 -4 -37t-15 -39q-5 -10 -12 -18.5t-17 -14.5q-21 -15 -49 -16q-4 -1 -12 -1q-26 0 -41.5 7t-23.5 17q-9 10 -12 21.5t-3 21.5q0 6 1 9
q1 9 4 16.5t8 13.5q13 17 38 25q11 4 24 5.5t27 1.5q17 0 33.5 -2t29.5 -4z" />
    <glyph glyph-name="adieresis" unicode="&#xe4;" horiz-adv-x="475" 
d="M192 606q-10 -17 -25.5 -26.5t-33.5 -9.5q-15 0 -29 8q-15 8 -23 23t-8 32t9 34t25 26t33 9q16 0 29 -7q15 -8 23.5 -23t8.5 -32q0 -18 -9 -34zM375 606q-9 -17 -25 -26.5t-33 -9.5q-15 0 -29 8q-16 8 -24 23t-8 32t9 34q21 35 58 35q16 0 30 -7q15 -8 23 -23t8 -32
q0 -18 -9 -34zM94 255q-29 -19 -43 -45q-16 -26 -16 -65v-6q1 -42 20 -71q13 -23 32 -37.5t42 -23.5q22 -10 45 -13.5t44 -3.5h13t12 1q45 5 81.5 25t62.5 52q53 65 53 169v8q-2 101 -59 163q-28 29 -66 45.5t-84 16.5h-8.5t-8.5 -1q-48 -3 -88.5 -22.5t-70.5 -51.5l-2 -3
l2 -4q9 -16 21 -23q13 -6 27 -6q13 0 27 3.5t28 8.5t28 8.5t28 4.5h11q15 0 26.5 -2.5t21.5 -7.5q26 -14 39 -45q10 -24 13 -55q-47 15 -99 15q-37 0 -71 -8.5t-61 -25.5zM301 207q7 -2 12 -3t9 -2q1 0 1.5 -0.5t1.5 -0.5q0 -17 -4 -37t-15 -39q-5 -10 -12 -18.5t-17 -14.5
q-21 -15 -49 -16q-4 -1 -12 -1q-26 0 -41.5 7t-23.5 17q-9 10 -12 21.5t-3 21.5q0 6 1 9q1 9 4 16.5t8 13.5q13 17 38 25q11 4 24 5.5t27 1.5q17 0 33.5 -2t29.5 -4z" />
    <glyph glyph-name="aring" unicode="&#xe5;" horiz-adv-x="475" 
d="M269 665q20 -11 31 -30.5t11 -42.5q0 -24 -12 -45q-12 -23 -33 -35t-44 -12q-22 0 -39 10q-20 11 -31 30.5t-11 42.5q0 24 12 45q13 23 33.5 35t43.5 12q22 0 39 -10zM256 571q4 8 4 18q1 9 -3.5 17t-12.5 13q-7 4 -16 4q-21 0 -32 -19q-4 -8 -4 -18q0 -9 4.5 -17
t12.5 -13q7 -4 15 -4q21 0 32 19zM94 255q27 17 61 25.5t71 8.5q52 0 99 -15q-3 31 -13 55q-13 31 -39 45q-10 5 -21.5 7.5t-26.5 2.5h-11q-14 -1 -28 -4.5t-28 -8.5t-28 -8.5t-27 -3.5q-14 0 -27 6q-12 7 -21 23l-2 4l2 3q30 32 70.5 51.5t88.5 22.5q5 1 8.5 1h8.5
q46 0 84 -16.5t66 -45.5q57 -62 59 -163v-8q0 -104 -53 -169q-26 -32 -62.5 -52t-81.5 -25q-6 -1 -12 -1h-13q-21 0 -44 3.5t-45 13.5q-23 9 -42 23.5t-32 37.5q-19 29 -20 71v6q0 39 16 65q14 26 43 45zM301 207q-13 2 -29.5 4t-33.5 2q-14 0 -27 -1.5t-24 -5.5
q-25 -8 -38 -25q-5 -6 -8 -13.5t-4 -16.5q-1 -3 -1 -9q0 -10 3 -21.5t12 -21.5q8 -10 23.5 -17t41.5 -7q8 0 12 1q28 1 49 16q10 6 17 14.5t12 18.5q11 19 15 39t4 37q-1 0 -1.5 0.5t-1.5 0.5q-4 1 -9 2t-12 3z" />
    <glyph glyph-name="ae" unicode="&#xe6;" horiz-adv-x="754" 
d="M688 91q10 -6 23 -24l2 -4l-3 -3q-33 -35 -78.5 -56t-98.5 -21q-46 0 -86.5 19t-70.5 51q-26 -29 -60.5 -46t-77.5 -22q-5 -1 -11.5 -1.5t-12.5 -0.5q-21 0 -44 4t-45 13q-23 10 -42 24.5t-33 36.5q-8 15 -13.5 33t-6.5 39v6q0 36 17 65q14 26 43 45q27 17 61 25.5
t71 8.5q51 0 99 -15q-2 14 -5 28t-8 26q-13 32 -39 45q-20 11 -48 11h-11q-14 -1 -28.5 -4.5t-28.5 -8.5t-27.5 -8.5t-26.5 -4.5q-16 0 -27 7q-14 9 -22 23l-2 4l3 3q30 32 70.5 51.5t87.5 22.5q5 1 9 1h9q46 0 84 -16.5t66 -46.5l1 -1q29 29 68 46t87 17q28 0 61.5 -8.5
t62.5 -27t48 -48.5t19 -72q0 -41 -20.5 -66.5t-50 -40t-62 -20t-56.5 -5.5q-37 0 -64.5 4.5t-37.5 6.5q4 -36 16 -59t27 -35.5t30 -17.5t27 -5q21 0 40 4.5t34 9.5t28.5 10t26.5 5t26 -7zM533 377q-11 0 -26 -4.5t-29.5 -16.5t-26.5 -34t-17 -56q16 -5 45.5 -10t59 -2
t52 17.5t24.5 47.5q2 24 -19.5 42t-62.5 16zM302 119q11 18 15 38.5t4 37.5q-2 0 -3 1q-4 1 -9 2t-12 2q-13 2 -29.5 4.5t-33.5 2.5q-14 0 -27 -1.5t-25 -5.5q-24 -8 -38 -25q-9 -12 -12 -31v-9q0 -9 3 -20.5t11 -21.5q9 -11 24 -17.5t41 -6.5h13q15 2 27 6t22 10
q18 13 29 34z" />
    <glyph glyph-name="ccedilla" unicode="&#xe7;" horiz-adv-x="453" 
d="M438 68l-3 -3q-32 -36 -77.5 -56.5t-98.5 -20.5q-2 -8 -2.5 -15t-0.5 -12q0 -6 1 -10q25 1 49 -4.5t43 -17t31 -29t13 -40.5q1 -25 -13 -46t-38.5 -34t-58 -16t-71.5 9q-23 7 -34 17.5t-15 21.5q-4 12 -3 25q37 -16 64.5 -19.5t45.5 2t26.5 17.5t8.5 27q0 19 -11.5 29.5
t-30 15.5t-41 5t-44.5 -2q-4 11 -5 24q-1 11 0.5 27.5t9.5 38.5q-47 18 -82 56q-31 32 -48.5 75.5t-17.5 93.5t16 93.5t45 76.5q29 32 70.5 51t92.5 19q53 0 98.5 -21t77.5 -56l3 -3l-2 -4q-10 -16 -23 -24q-11 -7 -25 -7t-27.5 5t-28.5 10q-15 6 -33.5 10.5t-39.5 4.5
q-13 0 -30.5 -6t-33.5 -23t-27 -47t-11 -78t11 -78.5t27 -47t33.5 -22.5t30.5 -6q21 0 40 4t34 9q14 6 27.5 10.5t27.5 4.5t25 -7q6 -4 12 -9.5t11 -14.5z" />
    <glyph glyph-name="egrave" unicode="&#xe8;" horiz-adv-x="490" 
d="M376 535q-45 1 -90.5 12t-80 30t-52.5 46.5t-9 62.5q17 5 36 3q17 -2 38.5 -10.5t46.5 -30.5q19 -18 39 -37.5t36 -36.5q18 -19 36 -39zM412 97q-11 7 -25 7q-13 0 -26.5 -5t-28.5 -10t-34 -9t-40 -4q-12 0 -27 4.5t-30 17.5t-27 35.5t-16 58.5q10 -2 37.5 -6.5
t64.5 -4.5q24 0 56.5 5.5t61.5 20t50 40t21 66.5q0 42 -19 72t-48 48.5t-62.5 27t-61.5 8.5q-51 0 -92.5 -19t-70.5 -51q-29 -33 -44.5 -76.5t-15.5 -93.5t17.5 -93.5t47.5 -75.5q31 -33 71.5 -51.5t86.5 -18.5q53 0 98.5 20.5t78.5 56.5l3 3l-3 3q-11 17 -23 24zM258 384
q41 2 62.5 -16t19.5 -43q-2 -33 -24.5 -47t-52 -17t-59 1.5t-45.5 9.5q5 34 17 56t26.5 34t29.5 16.5t26 5.5z" />
    <glyph glyph-name="eacute" unicode="&#xe9;" horiz-adv-x="490" 
d="M119 535q17 20 36 39q16 17 36 36.5t40 37.5q25 22 46.5 30.5t38.5 10.5q19 2 35 -3q9 -35 -9 -62.5t-52.5 -46.5t-80 -30t-90.5 -12zM412 97q12 -7 23 -24l3 -3l-3 -3q-33 -36 -78.5 -56.5t-98.5 -20.5q-46 0 -86.5 18.5t-71.5 51.5q-30 32 -47.5 75.5t-17.5 93.5
t15.5 93.5t44.5 76.5q29 32 70.5 51t92.5 19q28 0 61.5 -8.5t62.5 -27t48 -48.5t19 -72q0 -41 -21 -66.5t-50 -40t-61.5 -20t-56.5 -5.5q-37 0 -64.5 4.5t-37.5 6.5q4 -36 16 -58.5t27 -35.5t30 -17.5t27 -4.5q21 0 40 4t34 9t28.5 10t26.5 5q14 0 25 -7zM258 384
q-11 -1 -26 -5.5t-29.5 -16.5t-26.5 -34t-17 -56q16 -5 45.5 -9.5t59 -1.5t52 17t24.5 47q2 25 -19.5 43t-62.5 16z" />
    <glyph glyph-name="ecircumflex" unicode="&#xea;" horiz-adv-x="490" 
d="M397 536q-94 3 -146 66q-52 -63 -146 -66q10 20 21 39q10 17 22.5 36.5t28.5 36.5q15 17 28.5 26t25.5 12q1 1 6.5 2.5t13.5 1.5q9 0 14 -1.5t7 -2.5q11 -3 24.5 -12t28.5 -26t28 -36.5t23 -36.5q11 -19 21 -39zM412 97q12 -7 23 -24l3 -3l-3 -3q-33 -36 -78.5 -56.5
t-98.5 -20.5q-46 0 -86.5 18.5t-71.5 51.5q-30 32 -47.5 75.5t-17.5 93.5t15.5 93.5t44.5 76.5q29 32 70.5 51t92.5 19q28 0 61.5 -8.5t62.5 -27t48 -48.5t19 -72q0 -41 -21 -66.5t-50 -40t-61.5 -20t-56.5 -5.5q-37 0 -64.5 4.5t-37.5 6.5q4 -36 16 -58.5t27 -35.5
t30 -17.5t27 -4.5q21 0 40 4t34 9t28.5 10t26.5 5q14 0 25 -7zM258 384q-11 -1 -26 -5.5t-29.5 -16.5t-26.5 -34t-17 -56q16 -5 45.5 -9.5t59 -1.5t52 17t24.5 47q2 25 -19.5 43t-62.5 16z" />
    <glyph glyph-name="edieresis" unicode="&#xeb;" horiz-adv-x="490" 
d="M222 606q-10 -17 -25.5 -26.5t-33.5 -9.5q-15 0 -29 8q-15 8 -23 23t-8 32t9 34t25 26t33 9q16 0 29 -7q15 -8 23.5 -23t8.5 -32q0 -18 -9 -34zM405 606q-9 -17 -25 -26.5t-33 -9.5q-15 0 -29 8q-16 8 -24 23t-8 32t9 34q21 35 58 35q16 0 30 -7q15 -8 23 -23t8 -32
q0 -18 -9 -34zM412 97q-11 7 -25 7q-13 0 -26.5 -5t-28.5 -10t-34 -9t-40 -4q-12 0 -27 4.5t-30 17.5t-27 35.5t-16 58.5q10 -2 37.5 -6.5t64.5 -4.5q24 0 56.5 5.5t61.5 20t50 40t21 66.5q0 42 -19 72t-48 48.5t-62.5 27t-61.5 8.5q-51 0 -92.5 -19t-70.5 -51
q-29 -33 -44.5 -76.5t-15.5 -93.5t17.5 -93.5t47.5 -75.5q31 -33 71.5 -51.5t86.5 -18.5q53 0 98.5 20.5t78.5 56.5l3 3l-3 3q-11 17 -23 24zM258 384q41 2 62.5 -16t19.5 -43q-2 -33 -24.5 -47t-52 -17t-59 1.5t-45.5 9.5q5 34 17 56t26.5 34t29.5 16.5t26 5.5z" />
    <glyph glyph-name="igrave" unicode="&#xec;" horiz-adv-x="256" 
d="M256 535q-45 1 -90.5 12t-80 30t-52.5 46.5t-9 62.5q17 5 36 3q17 -2 38.5 -10.5t46.5 -30.5q19 -18 39 -37.5t36 -36.5q18 -19 36 -39zM245 90q-5 -7 -17 -11.5t-24 -2.5t-21 12.5t-9 34.5v239q0 30 0.5 48.5t1.5 29.5q1 12 2 19q-62 0 -94 -26t-32 -86l-1 -236
q0 -25 7.5 -48t23 -40t38.5 -26.5t54 -6.5q32 2 47 18.5t20 34.5q6 21 4 47z" />
    <glyph glyph-name="iacute" unicode="&#xed;" horiz-adv-x="262" 
d="M-13 535q17 20 36 39q16 17 36 36.5t40 37.5q25 22 46.5 30.5t38.5 10.5q19 2 35 -3q9 -35 -9 -62.5t-52.5 -46.5t-80 -30t-90.5 -12zM242 90q2 -26 -4 -47q-5 -18 -20 -34.5t-47 -18.5q-31 -3 -54 6.5t-38.5 26.5t-23 40t-7.5 48l1 236q0 60 32 86t94 26q-1 -7 -2 -19
q-1 -11 -1.5 -29.5t-0.5 -48.5v-239q0 -24 9 -34.5t21 -12.5t24 2.5t17 11.5z" />
    <glyph glyph-name="icircumflex" unicode="&#xee;" horiz-adv-x="264" 
d="M253 536q-94 3 -146 66q-52 -63 -146 -66q10 20 21 39q10 17 22.5 36.5t28.5 36.5q15 17 28.5 26t25.5 12q1 1 6.5 2.5t13.5 1.5q9 0 14 -1.5t7 -2.5q11 -3 24.5 -12t28.5 -26t28 -36.5t23 -36.5q11 -19 21 -39zM242 90q2 -26 -4 -47q-5 -18 -20 -34.5t-47 -18.5
q-31 -3 -54 6.5t-38.5 26.5t-23 40t-7.5 48l1 236q0 60 32 86t94 26q-1 -7 -2 -19q-1 -11 -1.5 -29.5t-0.5 -48.5v-239q0 -24 9 -34.5t21 -12.5t24 2.5t17 11.5z" />
    <glyph glyph-name="idieresis" unicode="&#xef;" horiz-adv-x="266" 
d="M74 606q-10 -17 -25.5 -26.5t-33.5 -9.5q-15 0 -29 8q-15 8 -23 23t-8 32t9 34t25 26t33 9q16 0 29 -7q15 -8 23.5 -23t8.5 -32q0 -18 -9 -34zM257 606q-9 -17 -25 -26.5t-33 -9.5q-15 0 -29 8q-16 8 -24 23t-8 32t9 34q21 35 58 35q16 0 30 -7q15 -8 23 -23t8 -32
q0 -18 -9 -34zM242 90q-5 -7 -17 -11.5t-24 -2.5t-21 12.5t-9 34.5v239q0 30 0.5 48.5t1.5 29.5q1 12 2 19q-62 0 -94 -26t-32 -86l-1 -236q0 -25 7.5 -48t23 -40t38.5 -26.5t54 -6.5q32 2 47 18.5t20 34.5q6 21 4 47z" />
    <glyph glyph-name="ntilde" unicode="&#xf1;" horiz-adv-x="519" 
d="M86 541q5 21 16 44.5t30.5 40t48.5 20.5t71 -14q36 -16 61 -20t43.5 0t31.5 14t24 24q3 -35 -7 -62q-8 -23 -31.5 -42.5t-70.5 -19.5q-35 0 -59.5 9t-47.5 16.5t-48.5 7.5t-61.5 -18zM41 252q0 67 19.5 109.5t50 66.5t69 32.5t77.5 8.5q38 0 77 -8.5t70.5 -32.5t51 -66.5
t19.5 -109.5l4 -252q-61 0 -94 26t-33 85l1 141q0 42 -8.5 67.5t-22.5 40t-31 19.5t-34 5t-33.5 -5t-30 -19.5t-22 -40t-8.5 -67.5v-155q1 -30 1.5 -49t1.5 -30q1 -12 2 -18q-62 0 -95 26t-33 85z" />
    <glyph glyph-name="ograve" unicode="&#xf2;" horiz-adv-x="517" 
d="M377 535q-45 1 -90.5 12t-80 30t-52.5 46.5t-9 62.5q17 5 36 3q17 -2 38.5 -10.5t46.5 -30.5q19 -18 39 -37.5t36 -36.5q18 -19 36 -39zM416 398q-30 33 -70.5 52t-87.5 19q-51 0 -92.5 -19t-70.5 -52q-29 -32 -44.5 -75.5t-15.5 -93.5t17.5 -93.5t47.5 -75.5
q31 -33 71.5 -52t86.5 -19q51 0 92.5 19t70.5 52q29 32 45 75.5t16 93.5t-17.5 93.5t-48.5 75.5zM258 75q-13 0 -30.5 6t-33.5 23t-27 47t-11 78t11 78.5t27 47t33.5 22.5t30.5 6t30.5 -6t33.5 -22.5t27 -47t11 -78.5t-11 -78t-27 -47t-33.5 -23t-30.5 -6z" />
    <glyph glyph-name="oacute" unicode="&#xf3;" horiz-adv-x="517" 
d="M134 535q17 20 36 39q16 17 36 36.5t40 37.5q25 22 46.5 30.5t38.5 10.5q19 2 35 -3q9 -35 -9 -62.5t-52.5 -46.5t-80 -30t-90.5 -12zM416 398q31 -32 48.5 -75.5t17.5 -93.5t-16 -93.5t-45 -75.5q-29 -33 -70.5 -52t-92.5 -19q-46 0 -86.5 19t-71.5 52
q-30 32 -47.5 75.5t-17.5 93.5t15.5 93.5t44.5 75.5q29 33 70.5 52t92.5 19q47 0 87.5 -19t70.5 -52zM258 75q13 0 30.5 6t33.5 23t27 47t11 78t-11 78.5t-27 47t-33.5 22.5t-30.5 6t-30.5 -6t-33.5 -22.5t-27 -47t-11 -78.5t11 -78t27 -47t33.5 -23t30.5 -6z" />
    <glyph glyph-name="ocircumflex" unicode="&#xf4;" horiz-adv-x="517" 
d="M407 536q-94 3 -146 66q-52 -63 -146 -66q10 20 21 39q10 17 22.5 36.5t28.5 36.5q15 17 28.5 26t25.5 12q1 1 6.5 2.5t13.5 1.5q9 0 14 -1.5t7 -2.5q11 -3 24.5 -12t28.5 -26t28 -36.5t23 -36.5q11 -19 21 -39zM416 398q31 -32 48.5 -75.5t17.5 -93.5t-16 -93.5
t-45 -75.5q-29 -33 -70.5 -52t-92.5 -19q-46 0 -86.5 19t-71.5 52q-30 32 -47.5 75.5t-17.5 93.5t15.5 93.5t44.5 75.5q29 33 70.5 52t92.5 19q47 0 87.5 -19t70.5 -52zM258 75q13 0 30.5 6t33.5 23t27 47t11 78t-11 78.5t-27 47t-33.5 22.5t-30.5 6t-30.5 -6t-33.5 -22.5
t-27 -47t-11 -78.5t11 -78t27 -47t33.5 -23t30.5 -6z" />
    <glyph glyph-name="otilde" unicode="&#xf5;" horiz-adv-x="517" 
d="M87 541q5 21 16 44.5t30.5 40t48.5 20.5t71 -14q36 -16 61 -20t43.5 0t31.5 14t24 24q3 -35 -7 -62q-8 -23 -31.5 -42.5t-70.5 -19.5q-35 0 -59.5 9t-47.5 16.5t-48.5 7.5t-61.5 -18zM416 398q-30 33 -70.5 52t-87.5 19q-51 0 -92.5 -19t-70.5 -52q-29 -32 -44.5 -75.5
t-15.5 -93.5t17.5 -93.5t47.5 -75.5q31 -33 71.5 -52t86.5 -19q51 0 92.5 19t70.5 52q29 32 45 75.5t16 93.5t-17.5 93.5t-48.5 75.5zM258 75q-13 0 -30.5 6t-33.5 23t-27 47t-11 78t11 78.5t27 47t33.5 22.5t30.5 6t30.5 -6t33.5 -22.5t27 -47t11 -78.5t-11 -78t-27 -47
t-33.5 -23t-30.5 -6z" />
    <glyph glyph-name="odieresis" unicode="&#xf6;" horiz-adv-x="517" 
d="M225 606q-10 -17 -25.5 -26.5t-33.5 -9.5q-15 0 -29 8q-15 8 -23 23t-8 32t9 34t25 26t33 9q16 0 29 -7q15 -8 23.5 -23t8.5 -32q0 -18 -9 -34zM408 606q-9 -17 -25 -26.5t-33 -9.5q-15 0 -29 8q-16 8 -24 23t-8 32t9 34q21 35 58 35q16 0 30 -7q15 -8 23 -23t8 -32
q0 -18 -9 -34zM416 398q-30 33 -70.5 52t-87.5 19q-51 0 -92.5 -19t-70.5 -52q-29 -32 -44.5 -75.5t-15.5 -93.5t17.5 -93.5t47.5 -75.5q31 -33 71.5 -52t86.5 -19q51 0 92.5 19t70.5 52q29 32 45 75.5t16 93.5t-17.5 93.5t-48.5 75.5zM258 75q-13 0 -30.5 6t-33.5 23
t-27 47t-11 78t11 78.5t27 47t33.5 22.5t30.5 6t30.5 -6t33.5 -22.5t27 -47t11 -78.5t-11 -78t-27 -47t-33.5 -23t-30.5 -6z" />
    <glyph glyph-name="divide" unicode="&#xf7;" horiz-adv-x="536" 
d="M496 267q0 -45 -25.5 -72t-71.5 -27h-359q0 45 25 72t71 27h360zM240 292q-18 10 -27 27t-9 36q0 22 10 39q11 20 28.5 30.5t37.5 10.5q17 0 34 -9q17 -10 26.5 -26.5t9.5 -36.5q0 -17 -10 -39q-11 -19 -29 -29.5t-38 -10.5q-17 0 -33 8zM258 370q-3 -6 -3 -12
q0 -13 11 -19q3 -2 10 -2q12 0 20 12q3 4 3 11q0 13 -11 19q-5 3 -10 3q-13 0 -20 -12zM222 9q-18 10 -27 26.5t-9 36.5t10 39q11 19 29 29.5t38 10.5q16 0 33 -9t26.5 -26t9.5 -37q0 -21 -10 -38q-11 -20 -29 -30.5t-38 -10.5q-18 0 -33 9zM240 86q-3 -6 -3 -12
q0 -13 11 -18q4 -3 10 -3q12 0 20 12q3 6 3 12q0 13 -11 19q-6 2 -10 2q-14 0 -20 -12z" />
    <glyph glyph-name="oslash" unicode="&#xf8;" horiz-adv-x="517" 
d="M452 492q26 -15 37 -38q10 -20 6.5 -49.5t-37.5 -69.5q23 -49 23 -107q0 -50 -15.5 -93.5t-44.5 -75.5q-29 -33 -70.5 -51.5t-92.5 -18.5q-59 0 -108 29l-77 -78q-26 15 -37 38q-10 20 -6 49t39 71l1 1q-17 28 -26.5 61t-9.5 68q0 50 16 93.5t45 75.5q29 33 70.5 52
t92.5 19q36 0 68.5 -11.5t59.5 -32.5zM156 229v-20.5t2 -18.5l162 166q-16 16 -32.5 21t-29.5 5t-30.5 -6t-33.5 -22.5t-27 -46.5t-11 -78zM258 75q13 0 30.5 6t33.5 22.5t27 47t11 78.5v5l-144 -148q11 -6 22 -8.5t20 -2.5z" />
    <glyph glyph-name="ugrave" unicode="&#xf9;" horiz-adv-x="520" 
d="M386 535q-45 1 -90.5 12t-80 30t-52.5 46.5t-9 62.5q17 5 36 3q17 -2 38.5 -10.5t46.5 -30.5q19 -18 39 -37.5t36 -36.5q18 -19 36 -39zM476 361q0 30 0.5 49t1.5 30q1 12 2 18q-62 0 -95 -25.5t-33 -85.5l-1 -141q0 -42 -8 -67.5t-21.5 -39.5t-30 -19t-33.5 -5t-33.5 5
t-30 19t-21.5 39.5t-8 67.5l-1 155q0 30 0.5 49t1.5 30q1 12 2 18q-62 0 -94.5 -25.5t-32.5 -85.5l-1 -141q0 -67 19.5 -109t51 -66t70.5 -33t77 -9t77 9t70.5 33t51.5 66t20 109z" />
    <glyph glyph-name="uacute" unicode="&#xfa;" horiz-adv-x="520" 
d="M144 535q17 20 36 39q16 17 36 36.5t40 37.5q25 22 46.5 30.5t38.5 10.5q19 2 35 -3q9 -35 -9 -62.5t-52.5 -46.5t-80 -30t-90.5 -12zM477 206q0 -67 -20 -109t-51.5 -66t-70.5 -33t-77 -9t-77 9t-70.5 33t-51 66t-19.5 109l1 141q0 60 32.5 85.5t94.5 25.5q-1 -6 -2 -18
q-1 -11 -1.5 -30t-0.5 -49l1 -155q0 -42 8 -67.5t21.5 -39.5t30 -19t33.5 -5t33.5 5t30 19t21.5 39.5t8 67.5l1 141q0 60 33 85.5t95 25.5q-1 -6 -2 -18q-1 -11 -1.5 -30t-0.5 -49z" />
    <glyph glyph-name="ucircumflex" unicode="&#xfb;" horiz-adv-x="520" 
d="M407 536q-94 3 -146 66q-52 -63 -146 -66q10 20 21 39q10 17 22.5 36.5t28.5 36.5q15 17 28.5 26t25.5 12q1 1 6.5 2.5t13.5 1.5q9 0 14 -1.5t7 -2.5q11 -3 24.5 -12t28.5 -26t28 -36.5t23 -36.5q11 -19 21 -39zM477 206q0 -67 -20 -109t-51.5 -66t-70.5 -33t-77 -9
t-77 9t-70.5 33t-51 66t-19.5 109l1 141q0 60 32.5 85.5t94.5 25.5q-1 -6 -2 -18q-1 -11 -1.5 -30t-0.5 -49l1 -155q0 -42 8 -67.5t21.5 -39.5t30 -19t33.5 -5t33.5 5t30 19t21.5 39.5t8 67.5l1 141q0 60 33 85.5t95 25.5q-1 -6 -2 -18q-1 -11 -1.5 -30t-0.5 -49z" />
    <glyph glyph-name="udieresis" unicode="&#xfc;" horiz-adv-x="520" 
d="M223 606q-10 -17 -25.5 -26.5t-33.5 -9.5q-15 0 -29 8q-15 8 -23 23t-8 32t9 34t25 26t33 9q16 0 29 -7q15 -8 23.5 -23t8.5 -32q0 -18 -9 -34zM406 606q-9 -17 -25 -26.5t-33 -9.5q-15 0 -29 8q-16 8 -24 23t-8 32t9 34q21 35 58 35q16 0 30 -7q15 -8 23 -23t8 -32
q0 -18 -9 -34zM476 361q0 30 0.5 49t1.5 30q1 12 2 18q-62 0 -95 -25.5t-33 -85.5l-1 -141q0 -42 -8 -67.5t-21.5 -39.5t-30 -19t-33.5 -5t-33.5 5t-30 19t-21.5 39.5t-8 67.5l-1 155q0 30 0.5 49t1.5 30q1 12 2 18q-62 0 -94.5 -25.5t-32.5 -85.5l-1 -141q0 -67 19.5 -109
t51 -66t70.5 -33t77 -9t77 9t70.5 33t51.5 66t20 109z" />
    <glyph glyph-name="yacute" unicode="&#xfd;" horiz-adv-x="436" 
d="M94 535q17 20 36 39q16 17 36 36.5t40 37.5q25 22 46.5 30.5t38.5 10.5q19 2 35 -3q9 -35 -9 -62.5t-52.5 -46.5t-80 -30t-90.5 -12zM295 406q13 32 37 43.5t47 13.5q27 2 57 -5q-64 -154 -115 -276q-22 -52 -43.5 -103t-38.5 -92t-28.5 -68t-13.5 -31q-14 -32 -37 -44
t-46 -14q-27 -3 -57 6q12 28 26 61q12 29 27.5 66.5t33.5 79.5q-3 7 -12.5 29t-22 53t-28 67.5t-30.5 73.5q-36 87 -81 192q30 7 57 5q23 -2 46.5 -13.5t37.5 -43.5q2 -5 10.5 -25.5t21 -51.5t28.5 -68.5t32 -75.5q18 42 34 80t28.5 68t20 49.5t9.5 23.5z" />
    <glyph glyph-name="ydieresis" unicode="&#xff;" horiz-adv-x="436" 
d="M172 606q-10 -17 -25.5 -26.5t-33.5 -9.5q-15 0 -29 8q-15 8 -23 23t-8 32t9 34t25 26t33 9q16 0 29 -7q15 -8 23.5 -23t8.5 -32q0 -18 -9 -34zM355 606q-9 -17 -25 -26.5t-33 -9.5q-15 0 -29 8q-16 8 -24 23t-8 32t9 34q21 35 58 35q16 0 30 -7q15 -8 23 -23t8 -32
q0 -18 -9 -34zM295 406q-2 -4 -9.5 -23.5t-20 -49.5t-28.5 -68t-34 -80q-16 38 -32 75.5t-28.5 68.5t-21 51.5t-10.5 25.5q-14 32 -37.5 43.5t-46.5 13.5q-27 2 -57 -5q45 -105 81 -192q15 -37 30.5 -73.5t28 -67.5t22 -53t12.5 -29q-18 -42 -33.5 -79.5t-27.5 -66.5
q-14 -33 -26 -61q30 -9 57 -6q23 2 46 14t37 44q2 4 13.5 31t28.5 68t38.5 92t43.5 103q51 122 115 276q-30 7 -57 5q-23 -2 -47 -13.5t-37 -43.5z" />
    <glyph glyph-name="OE" unicode="&#x152;" horiz-adv-x="1073" 
d="M1068 99v-6q0 -33 -12 -54q-10 -20 -31 -30q-19 -10 -43.5 -12t-44.5 -3q-115 -5 -189.5 18t-113.5 89q-49 -58 -118 -87.5t-144 -29.5q-66 0 -127.5 23t-109.5 68t-76.5 112t-28.5 155t28.5 155t76.5 112t109.5 67.5t127.5 22.5t126 -21.5t108 -65.5q2 2 2.5 3.5
t1.5 3.5q11 20 26 32.5t35 20.5q13 5 27 8t30 5q21 2 43.5 3t48.5 1h88q65 0 92 2t35 3h3h6v-6q0 -17 -3.5 -30t-8.5 -23q-12 -20 -31 -30q-20 -11 -42.5 -13t-45.5 -2h-170q-12 -2 -17 -5q-6 -3 -9 -8q-4 -5 -5 -13t-1 -19l3 -123h246q0 -45 -25 -72t-71 -27h-150
q0 -5 -0.5 -11t-0.5 -11q0 -60 12 -100t36.5 -64t63 -34t91.5 -10q65 0 100.5 2t43.5 3h2zM372 70q39 0 76.5 16t67.5 49.5t48 84.5t18 122q0 70 -18 121.5t-48 84.5t-67.5 49t-76.5 16t-76.5 -16t-67.5 -49t-48 -84.5t-18 -121.5q0 -71 18 -122t48 -84.5t67.5 -49.5
t76.5 -16z" />
    <glyph glyph-name="oe" unicode="&#x153;" horiz-adv-x="811" 
d="M738 91q13 -8 23 -24l2 -3l-3 -3q-32 -36 -78 -56.5t-98 -20.5q-47 0 -87.5 18.5t-70.5 51.5l-3 3q-1 -1 -1 -1.5t-1 -1.5q-29 -32 -70.5 -51t-92.5 -19q-47 0 -87.5 19t-70.5 51t-47.5 75.5t-17.5 93.5t15.5 93.5t44.5 76.5q29 32 70.5 51t92.5 19q47 0 87.5 -19
t70.5 -51l3 -3q0 1 2 3q29 32 70.5 51t92.5 19q27 0 60.5 -8.5t62.5 -27t48.5 -48.5t19.5 -72q0 -41 -21 -66.5t-50 -40t-62 -20t-57 -5.5q-36 0 -64 4.5t-37 6.5q4 -36 15.5 -58.5t26.5 -35.5t30.5 -17.5t27.5 -4.5q20 0 39 4t34 9t28.5 10t26.5 5q15 0 26 -7zM584 378
q-12 -1 -27 -5.5t-29.5 -16.5t-26.5 -34t-17 -56q16 -5 45.5 -9.5t59 -1.5t52 17t24.5 47q2 25 -19.5 43t-61.5 16zM258 70q13 0 30.5 6t33.5 22.5t27 47t11 78.5t-11 78.5t-27 47t-33.5 22.5t-30.5 6t-30.5 -6t-33.5 -22.5t-27 -47t-11 -78.5t11 -78.5t27 -47t33.5 -22.5
t30.5 -6z" />
    <glyph glyph-name="Ydieresis" unicode="&#x178;" horiz-adv-x="569" 
d="M346 228q9 20 24.5 53.5t34 72.5t38 81t38 80t33 69.5t23.5 49.5l8 18t7 17q4 9 7 18q-29 7 -55 4q-23 -2 -46.5 -14t-39.5 -42q-8 -15 -20.5 -42t-27.5 -58t-30 -64t-27.5 -59t-20.5 -43l-8 -17q-29 64 -55 119q-11 24 -23 48t-22.5 46t-19 40.5t-14.5 29.5
q-16 30 -39.5 42t-46.5 14q-26 3 -54 -4q3 -9 7 -18q3 -8 6.5 -17t8.5 -18q8 -18 23 -49t33 -69t37 -79t37.5 -79.5t33.5 -71t25 -53.5v-122q0 -60 32.5 -85.5t94.5 -25.5v6v5q0 2 -0.5 5.5t-0.5 8.5q0 10 -0.5 25t-0.5 35v143zM248 791q-9 -17 -25 -26t-33 -9q-16 0 -29 7
q-15 9 -23 23.5t-8 31.5q0 19 8 34q10 17 26 26.5t33 9.5q15 0 29 -8q15 -8 23 -23t8 -32q0 -18 -9 -34zM432 791q-9 -17 -25 -26t-33 -9q-16 0 -30 7q-15 9 -23 23.5t-8 31.5t9 34t25 26.5t33 9.5q15 0 29 -8q16 -8 24 -23t8 -32q0 -18 -9 -34z" />
    <glyph glyph-name="endash" unicode="&#x2013;" horiz-adv-x="551" 
d="M501 323q0 -45 -25 -72t-71 -27h-360q0 45 25 72t71 27h360z" />
    <glyph glyph-name="quoteleft" unicode="&#x2018;" horiz-adv-x="223" 
d="M199 702q-9 -25 -18 -54q-8 -25 -16 -56.5t-15 -65.5q-8 -40 -22.5 -59.5t-28.5 -27.5q-17 -10 -35 -9q-27 0 -35.5 18.5t-3 46.5t23 61.5t41.5 63.5t52.5 52.5t56.5 29.5z" />
    <glyph glyph-name="quoteright" unicode="&#x2019;" horiz-adv-x="251" 
d="M35 421q9 25 18 54q8 25 16 56t15 66q8 39 22.5 59t28.5 28q17 10 35 9q27 0 35.5 -18.5t3 -46.5t-23 -61.5t-41.5 -63.5t-52.5 -53t-56.5 -29z" />
    <glyph glyph-name="quotesinglbase" unicode="&#x201a;" horiz-adv-x="264" 
d="M45 -152q8 25 17 54q8 25 16 56t15 66q8 39 22.5 59t28.5 28q17 10 35 9q27 0 35.5 -18.5t3 -46.5t-23 -61.5t-41.5 -63.5t-52 -53t-56 -29z" />
    <glyph glyph-name="quotedblleft" unicode="&#x201c;" horiz-adv-x="408" 
d="M362 702q-9 -25 -18 -54q-8 -25 -16 -56.5t-15 -65.5q-8 -40 -22.5 -59.5t-28.5 -27.5q-17 -10 -35 -9q-27 0 -35.5 18.5t-3 46.5t23 61.5t41.5 63.5t52.5 52.5t56.5 29.5zM218 702q-9 -25 -18 -54q-8 -25 -16 -56.5t-15 -65.5q-8 -40 -22.5 -59.5t-28.5 -27.5
q-17 -10 -35 -9q-27 0 -35.5 18.5t-3 46.5t23 61.5t41.5 63.5t52.5 52.5t56.5 29.5z" />
    <glyph glyph-name="quotedblright" unicode="&#x201d;" horiz-adv-x="399" 
d="M35 421q9 25 18 54q8 25 16 56t15 66q8 39 22.5 59t28.5 28q17 10 35 9q27 0 35.5 -18.5t3 -46.5t-23 -61.5t-41.5 -63.5t-52.5 -53t-56.5 -29zM179 421q9 25 18 54q8 25 16 56t15 66q8 39 22.5 59t28.5 28q17 10 35 9q27 0 35.5 -18.5t3 -46.5t-23 -61.5t-41.5 -63.5
t-52.5 -53t-56.5 -29z" />
    <glyph glyph-name="ellipsis" unicode="&#x2026;" horiz-adv-x="584" 
d="M163 24q-9 -17 -25 -26t-33 -9q-16 0 -29 7q-16 8 -24 23t-8 32t9 34q10 17 25.5 26.5t32.5 9.5q14 0 30 -8q15 -8 23 -23t8 -32q0 -18 -9 -34zM347 24q-9 -17 -25 -26t-33 -9q-16 0 -29 7q-16 8 -24 23t-8 32t9 34q10 17 25.5 26.5t32.5 9.5q14 0 30 -8q15 -8 23 -23
t8 -32q0 -18 -9 -34zM531 24q-9 -17 -25 -26t-33 -9q-16 0 -29 7q-16 8 -24 23t-8 32t9 34q10 17 25.5 26.5t32.5 9.5q14 0 30 -8q15 -8 23 -23t8 -32q0 -18 -9 -34z" />
    <glyph glyph-name="perthousand" unicode="&#x2030;" horiz-adv-x="1346" 
d="M724 694q22 -18 32 -41q8 -20 4.5 -48t-33.5 -64l-533 -541q-26 15 -37 38q-10 20 -6.5 49t38.5 71zM811 280q56 -48 56 -124q0 -35 -15.5 -67t-43.5 -55q-28 -24 -64.5 -37.5t-79.5 -13.5q-46 0 -83.5 13.5t-64.5 37.5q-26 24 -41 56t-15 68q0 37 15.5 68t43.5 55
q28 23 65 37t79 14q46 0 83.5 -14t64.5 -38zM663 67q9 0 22 3.5t24.5 13t19.5 27t8 45.5t-8 45.5t-19.5 27.5t-24.5 13.5t-22 3.5q-10 0 -23 -3.5t-24.5 -13.5t-19.5 -27.5t-8 -45.5t8 -45.5t19.5 -27t24.5 -13t23 -3.5zM101 416q-56 50 -56 124q0 36 15.5 68t42.5 55
q28 23 65 36.5t79 13.5q47 0 84.5 -13.5t63.5 -37.5q56 -48 56 -124q0 -36 -15 -67t-43 -55t-65 -37.5t-79 -13.5q-46 0 -83.5 13.5t-64.5 37.5zM249 630q-9 0 -22 -3.5t-24.5 -13.5t-19.5 -27.5t-8 -45.5t8 -45.5t19.5 -27.5t24.5 -13.5t22 -3.5t22 3.5t24.5 13.5
t19.5 27.5t8 45.5t-8 45.5t-19.5 27.5t-24.5 13.5t-22 3.5zM1257 280q56 -48 56 -124q0 -35 -15.5 -67t-43.5 -55q-28 -24 -64.5 -37.5t-79.5 -13.5q-46 0 -83.5 13.5t-64.5 37.5q-26 24 -41 56t-15 68q0 37 15.5 68t43.5 55q28 23 65 37t79 14q46 0 83.5 -14t64.5 -38z
M1109 67q9 0 22 3.5t24.5 13t19.5 27t8 45.5t-8 45.5t-19.5 27.5t-24.5 13.5t-22 3.5q-10 0 -23 -3.5t-24.5 -13.5t-19.5 -27.5t-8 -45.5t8 -45.5t19.5 -27t24.5 -13t23 -3.5z" />
    <glyph glyph-name="guilsinglleft" unicode="&#x2039;" horiz-adv-x="354" 
d="M267 292l-60 -63q14 -13 31.5 -29t34.5 -31q21 -20 32.5 -37.5t15.5 -33t2.5 -29t-6.5 -24.5q-12 -26 -41 -45l-234 233l216 234q30 -21 43 -47q6 -11 8.5 -25t-0.5 -30t-13 -34.5t-29 -38.5z" />
    <glyph glyph-name="guilsinglright" unicode="&#x203a;" horiz-adv-x="358" 
d="M88 292q-20 20 -29.5 38.5t-12.5 34.5t-0.5 30t8.5 25q13 26 43 47l216 -234l-234 -233q-30 19 -41 45q-5 11 -7 24.5t2.5 29t16 33t32.5 37.5q17 15 34.5 31t31.5 29l-60 63v0z" />
    <glyph glyph-name="fraction" unicode="&#x2044;" horiz-adv-x="710" 
d="M620 694q22 -18 32 -41q8 -20 4.5 -48t-33.5 -64l-533 -541q-26 15 -37 38q-10 20 -6.5 49t38.5 71l535 536v0z" />
    <glyph glyph-name="Euro" unicode="&#x20ac;" horiz-adv-x="692" 
d="M638 97q11 -8 17 -16q4 -5 7 -11q-5 -8 -19.5 -21.5t-37.5 -26.5t-55.5 -22.5t-73.5 -9.5q-54 0 -105.5 15.5t-95 45.5t-76.5 75t-50 104h-119q0 45 25 72t71 27h8q-1 5 -1 10v10q0 8 0.5 16t0.5 16h-104q0 45 25 72t71 27h27q19 56 52 98t75.5 70.5t92.5 42.5t103 14
q41 0 73.5 -9.5t55.5 -22t37.5 -26t19.5 -22.5q-3 -6 -7 -11q-6 -8 -17 -16q-11 -7 -25 -7q-15 0 -26.5 4.5t-26 9.5t-34.5 9.5t-50 4.5q-57 0 -109 -33.5t-79 -105.5h273q0 -45 -25 -72t-71 -27h-198q-1 -8 -1 -16v-16v-20h295q0 -45 -25 -72t-71 -27h-182
q26 -79 79.5 -116.5t113.5 -37.5q30 0 50 4.5t34.5 9.5t26 9.5t26.5 4.5q14 0 25 -7z" />
    </font>
</defs>
</svg>
